M48
; DRILL file KiCad 10.0.0 date 2026-06-26T19:18:42
; FORMAT={-:-/ absolute / metric / decimal}
; #@! TF.CreationDate,2026-06-26T19:18:42+09:00
; #@! TF.GenerationSoftware,Kicad,Pcbnew,10.0.0
; #@! TF.FileFunction,Plated,1,2,PTH
FMAT,2
METRIC
; #@! TA.AperFunction,Plated,PTH,ViaDrill
T1C0.300
; #@! TA.AperFunction,Plated,PTH,ComponentDrill
T2C0.800
; #@! TA.AperFunction,Plated,PTH,ComponentDrill
T3C0.813
; #@! TA.AperFunction,Plated,PTH,ComponentDrill
T4C1.000
%
G90
G05
T1
X97.5Y-79.5
X97.5Y-92.0
X97.5Y-103.0
X97.5Y-114.84
X97.5Y-129.0
X99.0Y-80.5
X99.0Y-93.08
X99.0Y-104.5
X99.0Y-115.88
X100.5Y-123.0
X101.0Y-124.0
X106.5Y-125.5
X112.0Y-116.5
T2
X81.0Y-118.5
X81.1Y-64.8
X81.1Y-80.0
X81.1Y-115.8
X81.12Y-54.8
X81.12Y-57.5
X81.12Y-60.1
X81.12Y-62.3
X81.12Y-67.0
X81.12Y-69.7
X81.12Y-72.4
X81.12Y-77.3
X81.12Y-82.7
X81.12Y-85.3
X81.12Y-87.7
X81.12Y-90.2
X81.12Y-92.7
X81.12Y-95.0
X81.12Y-107.9
X81.12Y-110.9
X81.12Y-113.5
X81.2Y-100.4
X81.22Y-102.8
X81.32Y-105.3
X91.16Y-118.5
X91.26Y-64.8
X91.26Y-80.0
X91.26Y-115.8
X91.28Y-54.8
X91.28Y-57.5
X91.28Y-60.1
X91.28Y-62.3
X91.28Y-67.0
X91.28Y-69.7
X91.28Y-72.4
X91.28Y-77.3
X91.28Y-82.7
X91.28Y-85.3
X91.28Y-87.7
X91.28Y-90.2
X91.28Y-92.7
X91.28Y-95.0
X91.28Y-107.9
X91.28Y-110.9
X91.28Y-113.5
X91.36Y-100.4
X91.38Y-102.8
X91.48Y-105.3
T3
X93.88Y-100.68
X93.88Y-103.22
X93.88Y-105.76
X93.88Y-108.3
X93.88Y-110.84
X93.88Y-113.38
X93.88Y-115.92
X93.88Y-118.46
X94.0Y-55.22
X94.0Y-57.76
X94.0Y-60.3
X94.0Y-62.84
X94.0Y-65.38
X94.0Y-67.92
X94.0Y-70.46
X94.0Y-73.0
X94.0Y-77.76
X94.0Y-80.3
X94.0Y-82.84
X94.0Y-85.38
X94.0Y-87.92
X94.0Y-90.46
X94.0Y-93.0
X94.0Y-95.54
X101.5Y-100.68
X101.5Y-103.22
X101.5Y-105.76
X101.5Y-108.3
X101.5Y-110.84
X101.5Y-113.38
X101.5Y-115.92
X101.5Y-118.46
X101.62Y-55.22
X101.62Y-57.76
X101.62Y-60.3
X101.62Y-62.84
X101.62Y-65.38
X101.62Y-67.92
X101.62Y-70.46
X101.62Y-73.0
X101.62Y-77.76
X101.62Y-80.3
X101.62Y-82.84
X101.62Y-85.38
X101.62Y-87.92
X101.62Y-90.46
X101.62Y-93.0
X101.62Y-95.54
T4
X73.5Y-54.96
X73.5Y-57.5
X73.5Y-60.04
X73.5Y-62.58
X73.5Y-65.12
X73.5Y-67.66
X73.5Y-70.2
X73.5Y-72.74
X73.5Y-100.42
X73.5Y-102.96
X73.5Y-105.5
X73.5Y-108.04
X73.5Y-110.58
X73.5Y-113.12
X73.5Y-115.66
X73.5Y-118.2
X73.62Y-77.42
X73.62Y-79.96
X73.62Y-82.5
X73.62Y-85.04
X73.62Y-87.58
X73.62Y-90.12
X73.62Y-92.66
X73.62Y-95.2
X79.96Y-127.0
X82.5Y-127.0
X85.04Y-127.0
X87.58Y-127.0
X90.12Y-127.0
X92.66Y-127.0
X95.2Y-127.0
X97.74Y-127.0
M30
