%TF.GenerationSoftware,KiCad,Pcbnew,10.0.0*%
%TF.CreationDate,2026-06-26T19:18:10+09:00*%
%TF.ProjectId,park_kicad,7061726b-5f6b-4696-9361-642e6b696361,rev?*%
%TF.SameCoordinates,Original*%
%TF.FileFunction,Copper,L1,Top*%
%TF.FilePolarity,Positive*%
%FSLAX46Y46*%
G04 Gerber Fmt 4.6, Leading zero omitted, Abs format (unit mm)*
G04 Created by KiCad (PCBNEW 10.0.0) date 2026-06-26 19:18:10*
%MOMM*%
%LPD*%
G01*
G04 APERTURE LIST*
%TA.AperFunction,ComponentPad*%
%ADD10C,1.600000*%
%TD*%
%TA.AperFunction,ComponentPad*%
%ADD11R,1.700000X1.700000*%
%TD*%
%TA.AperFunction,ComponentPad*%
%ADD12C,1.700000*%
%TD*%
%TA.AperFunction,ComponentPad*%
%ADD13R,1.524000X1.524000*%
%TD*%
%TA.AperFunction,ComponentPad*%
%ADD14C,1.524000*%
%TD*%
%TA.AperFunction,ViaPad*%
%ADD15C,0.600000*%
%TD*%
%TA.AperFunction,Conductor*%
%ADD16C,0.200000*%
%TD*%
%TA.AperFunction,Conductor*%
%ADD17C,0.500000*%
%TD*%
%TA.AperFunction,Profile*%
%ADD18C,0.050000*%
%TD*%
G04 APERTURE END LIST*
D10*
%TO.P,R3,1*%
%TO.N,Net-(J1-Pin_3)*%
X81120000Y-60100000D03*
%TO.P,R3,2*%
%TO.N,Net-(U1-CH2)*%
X91280000Y-60100000D03*
%TD*%
%TO.P,R15,1*%
%TO.N,Net-(J4-Pin_7)*%
X81120000Y-92700000D03*
%TO.P,R15,2*%
%TO.N,Net-(U2-CH6)*%
X91280000Y-92700000D03*
%TD*%
%TO.P,R21,1*%
%TO.N,Net-(J6-Pin_5)*%
X81120000Y-110900000D03*
%TO.P,R21,2*%
%TO.N,Net-(U3-CH4)*%
X91280000Y-110900000D03*
%TD*%
%TO.P,R19,1*%
%TO.N,Net-(J6-Pin_3)*%
X81320000Y-105300000D03*
%TO.P,R19,2*%
%TO.N,Net-(U3-CH2)*%
X91480000Y-105300000D03*
%TD*%
D11*
%TO.P,J4,1,Pin_1_1*%
%TO.N,Net-(J4-Pin_1)*%
X73620000Y-77420000D03*
D12*
%TO.P,J4,2,Pin_2_2*%
%TO.N,Net-(J4-Pin_2)*%
X73620000Y-79960000D03*
%TO.P,J4,3,Pin_3_3*%
%TO.N,Net-(J4-Pin_3)*%
X73620000Y-82500000D03*
%TO.P,J4,4,Pin_4_4*%
%TO.N,Net-(J4-Pin_4)*%
X73620000Y-85040000D03*
%TO.P,J4,5,Pin_5_5*%
%TO.N,Net-(J4-Pin_5)*%
X73620000Y-87580000D03*
%TO.P,J4,6,Pin_6_6*%
%TO.N,Net-(J4-Pin_6)*%
X73620000Y-90120000D03*
%TO.P,J4,7,Pin_7_7*%
%TO.N,Net-(J4-Pin_7)*%
X73620000Y-92660000D03*
%TO.P,J4,8,Pin_8_8*%
%TO.N,Net-(J4-Pin_8)*%
X73620000Y-95200000D03*
%TD*%
D13*
%TO.P,U2,1,CH0_1*%
%TO.N,Net-(U2-CH0)*%
X94000000Y-77760000D03*
D14*
%TO.P,U2,2,CH1_2*%
%TO.N,Net-(U2-CH1)*%
X94000000Y-80300000D03*
%TO.P,U2,3,CH2_3*%
%TO.N,Net-(U2-CH2)*%
X94000000Y-82840000D03*
%TO.P,U2,4,CH3_4*%
%TO.N,Net-(J4-Pin_4)*%
X94000000Y-85380000D03*
%TO.P,U2,5,CH4_5*%
%TO.N,Net-(U2-CH4)*%
X94000000Y-87920000D03*
%TO.P,U2,6,CH5_6*%
%TO.N,Net-(U2-CH5)*%
X94000000Y-90460000D03*
%TO.P,U2,7,CH6_7*%
%TO.N,Net-(U2-CH6)*%
X94000000Y-93000000D03*
%TO.P,U2,8,CH7_8*%
%TO.N,Net-(J4-Pin_8)*%
X94000000Y-95540000D03*
%TO.P,U2,9,DGND_9*%
%TO.N,/GND*%
X101620000Y-95540000D03*
%TO.P,U2,10,~{CS}/SHDN_10*%
%TO.N,/cs_2*%
X101620000Y-93000000D03*
%TO.P,U2,11,Din_11*%
%TO.N,/glob_in*%
X101620000Y-90460000D03*
%TO.P,U2,12,Dout_12*%
%TO.N,/glob_out*%
X101620000Y-87920000D03*
%TO.P,U2,13,CLK_13*%
%TO.N,/glob_CLK*%
X101620000Y-85380000D03*
%TO.P,U2,14,AGND_14*%
%TO.N,/GND*%
X101620000Y-82840000D03*
%TO.P,U2,15,Vref_15*%
%TO.N,/5V*%
X101620000Y-80300000D03*
%TO.P,U2,16,Vdd_16*%
X101620000Y-77760000D03*
%TD*%
D10*
%TO.P,R5,1*%
%TO.N,Net-(J1-Pin_5)*%
X81100000Y-64800000D03*
%TO.P,R5,2*%
%TO.N,Net-(U1-CH4)*%
X91260000Y-64800000D03*
%TD*%
%TO.P,R7,1*%
%TO.N,Net-(J1-Pin_7)*%
X81120000Y-69700000D03*
%TO.P,R7,2*%
%TO.N,Net-(U1-CH6)*%
X91280000Y-69700000D03*
%TD*%
%TO.P,R17,1*%
%TO.N,Net-(J6-Pin_1)*%
X81200000Y-100400000D03*
%TO.P,R17,2*%
%TO.N,Net-(U3-CH0)*%
X91360000Y-100400000D03*
%TD*%
%TO.P,R13,1*%
%TO.N,Net-(J4-Pin_5)*%
X81120000Y-87700000D03*
%TO.P,R13,2*%
%TO.N,Net-(U2-CH4)*%
X91280000Y-87700000D03*
%TD*%
%TO.P,R11,1*%
%TO.N,Net-(J4-Pin_3)*%
X81120000Y-82700000D03*
%TO.P,R11,2*%
%TO.N,Net-(U2-CH2)*%
X91280000Y-82700000D03*
%TD*%
%TO.P,R1,1*%
%TO.N,Net-(J1-Pin_1)*%
X81120000Y-54800000D03*
%TO.P,R1,2*%
%TO.N,Net-(U1-CH0)*%
X91280000Y-54800000D03*
%TD*%
D11*
%TO.P,J1,1,Pin_1_1*%
%TO.N,Net-(J1-Pin_1)*%
X73500000Y-54960000D03*
D12*
%TO.P,J1,2,Pin_2_2*%
%TO.N,Net-(J1-Pin_2)*%
X73500000Y-57500000D03*
%TO.P,J1,3,Pin_3_3*%
%TO.N,Net-(J1-Pin_3)*%
X73500000Y-60040000D03*
%TO.P,J1,4,Pin_4_4*%
%TO.N,Net-(J1-Pin_4)*%
X73500000Y-62580000D03*
%TO.P,J1,5,Pin_5_5*%
%TO.N,Net-(J1-Pin_5)*%
X73500000Y-65120000D03*
%TO.P,J1,6,Pin_6_6*%
%TO.N,Net-(J1-Pin_6)*%
X73500000Y-67660000D03*
%TO.P,J1,7,Pin_7_7*%
%TO.N,Net-(J1-Pin_7)*%
X73500000Y-70200000D03*
%TO.P,J1,8,Pin_8_8*%
%TO.N,Net-(J1-Pin_8)*%
X73500000Y-72740000D03*
%TD*%
D13*
%TO.P,U1,1,CH0_1*%
%TO.N,Net-(U1-CH0)*%
X94000000Y-55220000D03*
D14*
%TO.P,U1,2,CH1_2*%
%TO.N,Net-(U1-CH1)*%
X94000000Y-57760000D03*
%TO.P,U1,3,CH2_3*%
%TO.N,Net-(U1-CH2)*%
X94000000Y-60300000D03*
%TO.P,U1,4,CH3_4*%
%TO.N,Net-(J1-Pin_4)*%
X94000000Y-62840000D03*
%TO.P,U1,5,CH4_5*%
%TO.N,Net-(U1-CH4)*%
X94000000Y-65380000D03*
%TO.P,U1,6,CH5_6*%
%TO.N,Net-(U1-CH5)*%
X94000000Y-67920000D03*
%TO.P,U1,7,CH6_7*%
%TO.N,Net-(U1-CH6)*%
X94000000Y-70460000D03*
%TO.P,U1,8,CH7_8*%
%TO.N,Net-(J1-Pin_8)*%
X94000000Y-73000000D03*
%TO.P,U1,9,DGND_9*%
%TO.N,/GND*%
X101620000Y-73000000D03*
%TO.P,U1,10,~{CS}/SHDN_10*%
%TO.N,/cs_1*%
X101620000Y-70460000D03*
%TO.P,U1,11,Din_11*%
%TO.N,/glob_in*%
X101620000Y-67920000D03*
%TO.P,U1,12,Dout_12*%
%TO.N,/glob_out*%
X101620000Y-65380000D03*
%TO.P,U1,13,CLK_13*%
%TO.N,/glob_CLK*%
X101620000Y-62840000D03*
%TO.P,U1,14,AGND_14*%
%TO.N,/GND*%
X101620000Y-60300000D03*
%TO.P,U1,15,Vref_15*%
%TO.N,/5V*%
X101620000Y-57760000D03*
%TO.P,U1,16,Vdd_16*%
X101620000Y-55220000D03*
%TD*%
D10*
%TO.P,R9,1*%
%TO.N,Net-(J4-Pin_1)*%
X81120000Y-77300000D03*
%TO.P,R9,2*%
%TO.N,Net-(U2-CH0)*%
X91280000Y-77300000D03*
%TD*%
D11*
%TO.P,J6,1,Pin_1_1*%
%TO.N,Net-(J6-Pin_1)*%
X73500000Y-100420000D03*
D12*
%TO.P,J6,2,Pin_2_2*%
%TO.N,Net-(J6-Pin_2)*%
X73500000Y-102960000D03*
%TO.P,J6,3,Pin_3_3*%
%TO.N,Net-(J6-Pin_3)*%
X73500000Y-105500000D03*
%TO.P,J6,4,Pin_4_4*%
%TO.N,Net-(J6-Pin_4)*%
X73500000Y-108040000D03*
%TO.P,J6,5,Pin_5_5*%
%TO.N,Net-(J6-Pin_5)*%
X73500000Y-110580000D03*
%TO.P,J6,6,Pin_6_6*%
%TO.N,Net-(J6-Pin_6)*%
X73500000Y-113120000D03*
%TO.P,J6,7,Pin_7_7*%
%TO.N,Net-(J6-Pin_7)*%
X73500000Y-115660000D03*
%TO.P,J6,8,Pin_8_8*%
%TO.N,Net-(J6-Pin_8)*%
X73500000Y-118200000D03*
%TD*%
D10*
%TO.P,R23,1*%
%TO.N,Net-(J6-Pin_7)*%
X81100000Y-115800000D03*
%TO.P,R23,2*%
%TO.N,Net-(U3-CH6)*%
X91260000Y-115800000D03*
%TD*%
D11*
%TO.P,J2,1,Pin_1_1*%
%TO.N,/GND*%
X79960000Y-127000000D03*
D12*
%TO.P,J2,2,Pin_2_2*%
%TO.N,/5V*%
X82500000Y-127000000D03*
%TO.P,J2,3,Pin_3_3*%
%TO.N,/glob_CLK*%
X85040000Y-127000000D03*
%TO.P,J2,4,Pin_4_4*%
%TO.N,/glob_out*%
X87580000Y-127000000D03*
%TO.P,J2,5,Pin_5_5*%
%TO.N,/glob_in*%
X90120000Y-127000000D03*
%TO.P,J2,6,Pin_6_6*%
%TO.N,/cs_1*%
X92660000Y-127000000D03*
%TO.P,J2,7,Pin_7_7*%
%TO.N,/cs_2*%
X95200000Y-127000000D03*
%TO.P,J2,8,Pin_8_8*%
%TO.N,/cs_3*%
X97740000Y-127000000D03*
%TD*%
D13*
%TO.P,U3,1,CH0_1*%
%TO.N,Net-(U3-CH0)*%
X93880000Y-100680000D03*
D14*
%TO.P,U3,2,CH1_2*%
%TO.N,Net-(U3-CH1)*%
X93880000Y-103220000D03*
%TO.P,U3,3,CH2_3*%
%TO.N,Net-(U3-CH2)*%
X93880000Y-105760000D03*
%TO.P,U3,4,CH3_4*%
%TO.N,Net-(J6-Pin_4)*%
X93880000Y-108300000D03*
%TO.P,U3,5,CH4_5*%
%TO.N,Net-(U3-CH4)*%
X93880000Y-110840000D03*
%TO.P,U3,6,CH5_6*%
%TO.N,Net-(U3-CH5)*%
X93880000Y-113380000D03*
%TO.P,U3,7,CH6_7*%
%TO.N,Net-(U3-CH6)*%
X93880000Y-115920000D03*
%TO.P,U3,8,CH7_8*%
%TO.N,Net-(J6-Pin_8)*%
X93880000Y-118460000D03*
%TO.P,U3,9,DGND_9*%
%TO.N,/GND*%
X101500000Y-118460000D03*
%TO.P,U3,10,~{CS}/SHDN_10*%
%TO.N,/cs_3*%
X101500000Y-115920000D03*
%TO.P,U3,11,Din_11*%
%TO.N,/glob_in*%
X101500000Y-113380000D03*
%TO.P,U3,12,Dout_12*%
%TO.N,/glob_out*%
X101500000Y-110840000D03*
%TO.P,U3,13,CLK_13*%
%TO.N,/glob_CLK*%
X101500000Y-108300000D03*
%TO.P,U3,14,AGND_14*%
%TO.N,/GND*%
X101500000Y-105760000D03*
%TO.P,U3,15,Vref_15*%
%TO.N,/5V*%
X101500000Y-103220000D03*
%TO.P,U3,16,Vdd_16*%
X101500000Y-100680000D03*
%TD*%
D10*
%TO.P,R20,1*%
%TO.N,Net-(J6-Pin_4)*%
X91280000Y-107900000D03*
%TO.P,R20,2*%
%TO.N,/GND*%
X81120000Y-107900000D03*
%TD*%
%TO.P,R2,1*%
%TO.N,Net-(J1-Pin_2)*%
X91280000Y-57500000D03*
%TO.P,R2,2*%
%TO.N,Net-(U1-CH1)*%
X81120000Y-57500000D03*
%TD*%
%TO.P,R22,1*%
%TO.N,Net-(J6-Pin_6)*%
X91280000Y-113500000D03*
%TO.P,R22,2*%
%TO.N,Net-(U3-CH5)*%
X81120000Y-113500000D03*
%TD*%
%TO.P,R6,1*%
%TO.N,Net-(J1-Pin_6)*%
X91280000Y-67000000D03*
%TO.P,R6,2*%
%TO.N,Net-(U1-CH5)*%
X81120000Y-67000000D03*
%TD*%
%TO.P,R18,1*%
%TO.N,Net-(J6-Pin_2)*%
X91380000Y-102800000D03*
%TO.P,R18,2*%
%TO.N,Net-(U3-CH1)*%
X81220000Y-102800000D03*
%TD*%
%TO.P,R12,1*%
%TO.N,Net-(J4-Pin_4)*%
X91280000Y-85300000D03*
%TO.P,R12,2*%
%TO.N,/GND*%
X81120000Y-85300000D03*
%TD*%
%TO.P,R16,1*%
%TO.N,Net-(J4-Pin_8)*%
X91280000Y-95000000D03*
%TO.P,R16,2*%
%TO.N,/GND*%
X81120000Y-95000000D03*
%TD*%
%TO.P,R4,1*%
%TO.N,Net-(J1-Pin_4)*%
X91280000Y-62300000D03*
%TO.P,R4,2*%
%TO.N,/GND*%
X81120000Y-62300000D03*
%TD*%
%TO.P,R14,1*%
%TO.N,Net-(J4-Pin_6)*%
X91280000Y-90200000D03*
%TO.P,R14,2*%
%TO.N,Net-(U2-CH5)*%
X81120000Y-90200000D03*
%TD*%
%TO.P,R8,1*%
%TO.N,Net-(J1-Pin_8)*%
X91280000Y-72400000D03*
%TO.P,R8,2*%
%TO.N,/GND*%
X81120000Y-72400000D03*
%TD*%
%TO.P,R10,1*%
%TO.N,Net-(J4-Pin_2)*%
X91260000Y-80000000D03*
%TO.P,R10,2*%
%TO.N,Net-(U2-CH1)*%
X81100000Y-80000000D03*
%TD*%
%TO.P,R24,1*%
%TO.N,Net-(J6-Pin_8)*%
X91160000Y-118500000D03*
%TO.P,R24,2*%
%TO.N,/GND*%
X81000000Y-118500000D03*
%TD*%
D15*
%TO.N,/cs_2*%
X112000000Y-116500000D03*
X106500000Y-125500000D03*
X97500000Y-129000000D03*
%TO.N,/glob_in*%
X99000000Y-104500000D03*
X99000000Y-93080000D03*
X99000000Y-80500000D03*
X99000000Y-115880000D03*
%TO.N,/glob_out*%
X97500000Y-114840000D03*
X97500000Y-92000000D03*
X97500000Y-103000000D03*
X97500000Y-79500000D03*
%TO.N,/cs_1*%
X100500000Y-123000000D03*
%TO.N,/cs_3*%
X101000000Y-124000000D03*
%TD*%
%TO.N,Net-(J1-Pin_3)*%
D16*
X73560000Y-60100000D02*
X73500000Y-60040000D01*
X81120000Y-60100000D02*
X73560000Y-60100000D01*
%TO.N,Net-(U1-CH2)*%
X91300000Y-60100000D02*
X91500000Y-60300000D01*
X91500000Y-60300000D02*
X94000000Y-60300000D01*
X91280000Y-60100000D02*
X91300000Y-60100000D01*
X93740000Y-60040000D02*
X94000000Y-60300000D01*
%TO.N,Net-(J4-Pin_7)*%
X73660000Y-92700000D02*
X73620000Y-92660000D01*
X73700000Y-92740000D02*
X73620000Y-92660000D01*
X81120000Y-92700000D02*
X73660000Y-92700000D01*
%TO.N,Net-(U2-CH6)*%
X94000000Y-93000000D02*
X91580000Y-93000000D01*
X93660000Y-92660000D02*
X94000000Y-93000000D01*
X91580000Y-93000000D02*
X91280000Y-92700000D01*
%TO.N,Net-(J6-Pin_5)*%
X73820000Y-110900000D02*
X73500000Y-110580000D01*
X81120000Y-110900000D02*
X73820000Y-110900000D01*
%TO.N,Net-(U3-CH4)*%
X93820000Y-110900000D02*
X93880000Y-110840000D01*
X91280000Y-110900000D02*
X93820000Y-110900000D01*
%TO.N,Net-(J6-Pin_3)*%
X81320000Y-105300000D02*
X73700000Y-105300000D01*
X73700000Y-105300000D02*
X73500000Y-105500000D01*
%TO.N,Net-(U3-CH2)*%
X93620000Y-105500000D02*
X93880000Y-105760000D01*
X93880000Y-105760000D02*
X91940000Y-105760000D01*
X91940000Y-105760000D02*
X91480000Y-105300000D01*
%TO.N,Net-(J4-Pin_1)*%
X81120000Y-77300000D02*
X73740000Y-77300000D01*
X73740000Y-77300000D02*
X73620000Y-77420000D01*
%TO.N,Net-(J4-Pin_2)*%
X73620000Y-79960000D02*
X74680000Y-78900000D01*
X90160000Y-78900000D02*
X91260000Y-80000000D01*
X74680000Y-78900000D02*
X90160000Y-78900000D01*
X73960000Y-80300000D02*
X73620000Y-79960000D01*
%TO.N,Net-(J4-Pin_3)*%
X74000000Y-82500000D02*
X74340000Y-82840000D01*
X73620000Y-82500000D02*
X74000000Y-82500000D01*
X73820000Y-82700000D02*
X73620000Y-82500000D01*
X81120000Y-82700000D02*
X73820000Y-82700000D01*
%TO.N,Net-(J4-Pin_4)*%
X73620000Y-85040000D02*
X74470000Y-84190000D01*
X94000000Y-85380000D02*
X93880000Y-85380000D01*
X91280000Y-85300000D02*
X93920000Y-85300000D01*
X93920000Y-85300000D02*
X94000000Y-85380000D01*
X93880000Y-85380000D02*
X93540000Y-85040000D01*
X74470000Y-84190000D02*
X90170000Y-84190000D01*
X90170000Y-84190000D02*
X91280000Y-85300000D01*
%TO.N,Net-(J4-Pin_5)*%
X81120000Y-87700000D02*
X73740000Y-87700000D01*
X73740000Y-87700000D02*
X73620000Y-87580000D01*
%TO.N,Net-(J4-Pin_6)*%
X90180000Y-89100000D02*
X91280000Y-90200000D01*
X73620000Y-90120000D02*
X74640000Y-89100000D01*
X74640000Y-89100000D02*
X90180000Y-89100000D01*
%TO.N,Net-(J4-Pin_8)*%
X91820000Y-95540000D02*
X91280000Y-95000000D01*
X73620000Y-95200000D02*
X74920000Y-93900000D01*
X74920000Y-93900000D02*
X90180000Y-93900000D01*
X94000000Y-95540000D02*
X91820000Y-95540000D01*
X93920000Y-95460000D02*
X94000000Y-95540000D01*
X73960000Y-95540000D02*
X73620000Y-95200000D01*
X90180000Y-93900000D02*
X91280000Y-95000000D01*
%TO.N,Net-(U2-CH0)*%
X93660000Y-77420000D02*
X94000000Y-77760000D01*
X91740000Y-77760000D02*
X91280000Y-77300000D01*
X94000000Y-77760000D02*
X91740000Y-77760000D01*
%TO.N,Net-(U2-CH1)*%
X94000000Y-80300000D02*
X93200000Y-81100000D01*
X93200000Y-81100000D02*
X82200000Y-81100000D01*
X93920000Y-80220000D02*
X94000000Y-80300000D01*
X82200000Y-81100000D02*
X81100000Y-80000000D01*
%TO.N,Net-(U2-CH2)*%
X91420000Y-82840000D02*
X91280000Y-82700000D01*
X94000000Y-82840000D02*
X91420000Y-82840000D01*
%TO.N,Net-(U2-CH4)*%
X94000000Y-87920000D02*
X91500000Y-87920000D01*
X91500000Y-87920000D02*
X91280000Y-87700000D01*
X93660000Y-87580000D02*
X94000000Y-87920000D01*
%TO.N,Net-(U2-CH5)*%
X93920000Y-90380000D02*
X94000000Y-90460000D01*
X93960000Y-90460000D02*
X93620000Y-90120000D01*
X82220000Y-91300000D02*
X81120000Y-90200000D01*
X93160000Y-91300000D02*
X82220000Y-91300000D01*
X94000000Y-90460000D02*
X93960000Y-90460000D01*
X94000000Y-90460000D02*
X93160000Y-91300000D01*
%TO.N,/cs_2*%
X112000000Y-120000000D02*
X112000000Y-116500000D01*
X96800000Y-128300000D02*
X96500000Y-128300000D01*
X106500000Y-125500000D02*
X112000000Y-120000000D01*
X96500000Y-128300000D02*
X95200000Y-127000000D01*
X97500000Y-129000000D02*
X96800000Y-128300000D01*
%TO.N,/glob_in*%
X99000000Y-93080000D02*
X101620000Y-90460000D01*
X99000000Y-115880000D02*
X99000000Y-120000000D01*
X91000000Y-122000000D02*
X91000000Y-126120000D01*
X99000000Y-120000000D02*
X97500000Y-121500000D01*
X99000000Y-70540000D02*
X99000000Y-80500000D01*
X91500000Y-121500000D02*
X91000000Y-122000000D01*
X101620000Y-67920000D02*
X99000000Y-70540000D01*
X99000000Y-115880000D02*
X101500000Y-113380000D01*
X99000000Y-93080000D02*
X99000000Y-104500000D01*
X97500000Y-121500000D02*
X91500000Y-121500000D01*
X91000000Y-126120000D02*
X90120000Y-127000000D01*
%TO.N,/glob_out*%
X96500000Y-120500000D02*
X96000000Y-120500000D01*
X97500000Y-69500000D02*
X97500000Y-79500000D01*
X98500000Y-91000000D02*
X98540000Y-91000000D01*
X97500000Y-114840000D02*
X97500000Y-119500000D01*
X87580000Y-127000000D02*
X88500000Y-126080000D01*
X88500000Y-122000000D02*
X89500000Y-121000000D01*
X98540000Y-91000000D02*
X101620000Y-87920000D01*
X97500000Y-119500000D02*
X96000000Y-121000000D01*
X88500000Y-126080000D02*
X88500000Y-122000000D01*
X97500000Y-114840000D02*
X101500000Y-110840000D01*
X96000000Y-121000000D02*
X89500000Y-121000000D01*
X101620000Y-65380000D02*
X97500000Y-69500000D01*
X97500000Y-92000000D02*
X97500000Y-103000000D01*
X97500000Y-92000000D02*
X98500000Y-91000000D01*
%TO.N,/glob_CLK*%
X85040000Y-121460000D02*
X86000000Y-120500000D01*
X96000000Y-91000000D02*
X96000000Y-102800000D01*
X86000000Y-120500000D02*
X95500000Y-120500000D01*
X101620000Y-85380000D02*
X96000000Y-91000000D01*
X85040000Y-127000000D02*
X85040000Y-121460000D01*
X96500000Y-113300000D02*
X101500000Y-108300000D01*
X96500000Y-119500000D02*
X96500000Y-113300000D01*
X96000000Y-68460000D02*
X96000000Y-79760000D01*
X101620000Y-62840000D02*
X96000000Y-68460000D01*
X95600000Y-120400000D02*
X95600000Y-120334315D01*
X95500000Y-120500000D02*
X95600000Y-120400000D01*
X95834315Y-120100000D02*
X95900000Y-120100000D01*
X96000000Y-79760000D02*
X101620000Y-85380000D01*
X95600000Y-120334315D02*
X95834315Y-120100000D01*
X96000000Y-102800000D02*
X101500000Y-108300000D01*
X95900000Y-120100000D02*
X96500000Y-119500000D01*
%TO.N,/5V*%
D17*
X101500000Y-103220000D02*
X104000000Y-105720000D01*
X104000000Y-105720000D02*
X104000000Y-128000000D01*
X104000000Y-128000000D02*
X102000000Y-130000000D01*
X104000000Y-75380000D02*
X101620000Y-77760000D01*
X101500000Y-100680000D02*
X101500000Y-103220000D01*
X85500000Y-130000000D02*
X82500000Y-127000000D01*
X104000000Y-60140000D02*
X104000000Y-75380000D01*
X104000000Y-98180000D02*
X101500000Y-100680000D01*
X104000000Y-82680000D02*
X104000000Y-98180000D01*
X101620000Y-55220000D02*
X101620000Y-57760000D01*
X101620000Y-77760000D02*
X101620000Y-80300000D01*
X102000000Y-130000000D02*
X85500000Y-130000000D01*
X101620000Y-80300000D02*
X104000000Y-82680000D01*
X101620000Y-57760000D02*
X104000000Y-60140000D01*
%TO.N,Net-(J1-Pin_5)*%
D16*
X73820000Y-64800000D02*
X73500000Y-65120000D01*
X81100000Y-64800000D02*
X73820000Y-64800000D01*
%TO.N,Net-(U1-CH4)*%
X93740000Y-65120000D02*
X94000000Y-65380000D01*
X91840000Y-65380000D02*
X91260000Y-64800000D01*
X94000000Y-65380000D02*
X91840000Y-65380000D01*
%TO.N,Net-(J1-Pin_7)*%
X74000000Y-69700000D02*
X73500000Y-70200000D01*
X81120000Y-69700000D02*
X74000000Y-69700000D01*
%TO.N,Net-(U1-CH6)*%
X92040000Y-70460000D02*
X91280000Y-69700000D01*
X93740000Y-70200000D02*
X94000000Y-70460000D01*
X94000000Y-70460000D02*
X92040000Y-70460000D01*
%TO.N,Net-(J6-Pin_1)*%
X73520000Y-100400000D02*
X73500000Y-100420000D01*
X81200000Y-100400000D02*
X73520000Y-100400000D01*
%TO.N,Net-(U3-CH0)*%
X93600000Y-100400000D02*
X93880000Y-100680000D01*
X91360000Y-100400000D02*
X93600000Y-100400000D01*
%TO.N,Net-(J1-Pin_1)*%
X73660000Y-54800000D02*
X73500000Y-54960000D01*
X81120000Y-54800000D02*
X73660000Y-54800000D01*
%TO.N,Net-(U1-CH0)*%
X91700000Y-55220000D02*
X91280000Y-54800000D01*
X93740000Y-54960000D02*
X94000000Y-55220000D01*
X94000000Y-55220000D02*
X91700000Y-55220000D01*
%TO.N,Net-(J1-Pin_2)*%
X74600000Y-56400000D02*
X73500000Y-57500000D01*
X73760000Y-57760000D02*
X73500000Y-57500000D01*
X91280000Y-57500000D02*
X90180000Y-56400000D01*
X90180000Y-56400000D02*
X74600000Y-56400000D01*
%TO.N,Net-(J1-Pin_4)*%
X73500000Y-62580000D02*
X74880000Y-61200000D01*
X91280000Y-62300000D02*
X91400000Y-62300000D01*
X91400000Y-62300000D02*
X91940000Y-62840000D01*
X91940000Y-62840000D02*
X94000000Y-62840000D01*
X90180000Y-61200000D02*
X91280000Y-62300000D01*
X74880000Y-61200000D02*
X90180000Y-61200000D01*
X73760000Y-62840000D02*
X73500000Y-62580000D01*
%TO.N,Net-(J1-Pin_6)*%
X90180000Y-65900000D02*
X75260000Y-65900000D01*
X91280000Y-67000000D02*
X90180000Y-65900000D01*
X75260000Y-65900000D02*
X73500000Y-67660000D01*
X73760000Y-67920000D02*
X73500000Y-67660000D01*
%TO.N,Net-(J1-Pin_8)*%
X74350000Y-73590000D02*
X90090000Y-73590000D01*
X91280000Y-72400000D02*
X93400000Y-72400000D01*
X93400000Y-72400000D02*
X94000000Y-73000000D01*
X90090000Y-73590000D02*
X91280000Y-72400000D01*
X73500000Y-72740000D02*
X74350000Y-73590000D01*
%TO.N,Net-(U1-CH1)*%
X82220000Y-58600000D02*
X93160000Y-58600000D01*
X93160000Y-58600000D02*
X94000000Y-57760000D01*
X81120000Y-57500000D02*
X82220000Y-58600000D01*
%TO.N,Net-(U1-CH5)*%
X93820000Y-68100000D02*
X94000000Y-67920000D01*
X82220000Y-68100000D02*
X93820000Y-68100000D01*
X81120000Y-67000000D02*
X82220000Y-68100000D01*
%TO.N,/cs_1*%
X92660000Y-122840000D02*
X92660000Y-127000000D01*
X100500000Y-123000000D02*
X99500000Y-122000000D01*
X93500000Y-122000000D02*
X92660000Y-122840000D01*
X99500000Y-122000000D02*
X93500000Y-122000000D01*
%TO.N,Net-(J6-Pin_2)*%
X91380000Y-102800000D02*
X90280000Y-103900000D01*
X74440000Y-103900000D02*
X73500000Y-102960000D01*
X90280000Y-103900000D02*
X74440000Y-103900000D01*
%TO.N,Net-(J6-Pin_4)*%
X91280000Y-107900000D02*
X93480000Y-107900000D01*
X90180000Y-106800000D02*
X91280000Y-107900000D01*
X93480000Y-107900000D02*
X93880000Y-108300000D01*
X74740000Y-106800000D02*
X90180000Y-106800000D01*
X73500000Y-108040000D02*
X74740000Y-106800000D01*
%TO.N,Net-(J6-Pin_6)*%
X74350000Y-112270000D02*
X90050000Y-112270000D01*
X73500000Y-113120000D02*
X74350000Y-112270000D01*
X90050000Y-112270000D02*
X91280000Y-113500000D01*
%TO.N,Net-(J6-Pin_7)*%
X81100000Y-115800000D02*
X73640000Y-115800000D01*
X73760000Y-115920000D02*
X73500000Y-115660000D01*
X73640000Y-115800000D02*
X73500000Y-115660000D01*
%TO.N,Net-(J6-Pin_8)*%
X74350000Y-117350000D02*
X90010000Y-117350000D01*
X91160000Y-118500000D02*
X93840000Y-118500000D01*
X93840000Y-118500000D02*
X93880000Y-118460000D01*
X73500000Y-118200000D02*
X74350000Y-117350000D01*
X73760000Y-118460000D02*
X73500000Y-118200000D01*
X90010000Y-117350000D02*
X91160000Y-118500000D01*
%TO.N,Net-(U3-CH6)*%
X93880000Y-115920000D02*
X91380000Y-115920000D01*
X91380000Y-115920000D02*
X91260000Y-115800000D01*
%TO.N,/cs_3*%
X101000000Y-124000000D02*
X101500000Y-124500000D01*
X101500000Y-124500000D02*
X101500000Y-126500000D01*
X101000000Y-127000000D02*
X97740000Y-127000000D01*
X101500000Y-126500000D02*
X101000000Y-127000000D01*
%TO.N,Net-(U3-CH1)*%
X82320000Y-101700000D02*
X81220000Y-102800000D01*
X92360000Y-101700000D02*
X82320000Y-101700000D01*
X93880000Y-103220000D02*
X92360000Y-101700000D01*
%TO.N,Net-(U3-CH5)*%
X92660000Y-114600000D02*
X82220000Y-114600000D01*
X93880000Y-113380000D02*
X92660000Y-114600000D01*
X82220000Y-114600000D02*
X81120000Y-113500000D01*
%TD*%
%TA.AperFunction,Conductor*%
%TO.N,/GND*%
G36*
X113943039Y-51520185D02*
G01*
X113988794Y-51572989D01*
X114000000Y-51624500D01*
X114000000Y-57000000D01*
X119375500Y-57000000D01*
X119442539Y-57019685D01*
X119488294Y-57072489D01*
X119499500Y-57124000D01*
X119499500Y-124876000D01*
X119479815Y-124943039D01*
X119427011Y-124988794D01*
X119375500Y-125000000D01*
X114000000Y-125000000D01*
X114000000Y-130375500D01*
X113980315Y-130442539D01*
X113927511Y-130488294D01*
X113876000Y-130499500D01*
X102861230Y-130499500D01*
X102794191Y-130479815D01*
X102748436Y-130427011D01*
X102738492Y-130357853D01*
X102767517Y-130294297D01*
X102773549Y-130287819D01*
X104582948Y-128478419D01*
X104582947Y-128478419D01*
X104582951Y-128478416D01*
X104618492Y-128425225D01*
X104619613Y-128423548D01*
X104619615Y-128423543D01*
X104619621Y-128423535D01*
X104665084Y-128355495D01*
X104721658Y-128218913D01*
X104750500Y-128073918D01*
X104750500Y-125421153D01*
X105699500Y-125421153D01*
X105699500Y-125578846D01*
X105730261Y-125733489D01*
X105730264Y-125733501D01*
X105790602Y-125879172D01*
X105790609Y-125879185D01*
X105878210Y-126010288D01*
X105878213Y-126010292D01*
X105989707Y-126121786D01*
X105989711Y-126121789D01*
X106120814Y-126209390D01*
X106120827Y-126209397D01*
X106259750Y-126266940D01*
X106266503Y-126269737D01*
X106421153Y-126300499D01*
X106421156Y-126300500D01*
X106421158Y-126300500D01*
X106578844Y-126300500D01*
X106578845Y-126300499D01*
X106733497Y-126269737D01*
X106879179Y-126209394D01*
X107010289Y-126121789D01*
X107121789Y-126010289D01*
X107209394Y-125879179D01*
X107269737Y-125733497D01*
X107289113Y-125636085D01*
X107300638Y-125578150D01*
X107333023Y-125516239D01*
X107334518Y-125514716D01*
X112480520Y-120368716D01*
X112559577Y-120231784D01*
X112600501Y-120079057D01*
X112600501Y-119920942D01*
X112600501Y-119913347D01*
X112600500Y-119913329D01*
X112600500Y-117079765D01*
X112620185Y-117012726D01*
X112621398Y-117010874D01*
X112628806Y-116999788D01*
X112709394Y-116879179D01*
X112769737Y-116733497D01*
X112800500Y-116578842D01*
X112800500Y-116421158D01*
X112800500Y-116421155D01*
X112800499Y-116421153D01*
X112789890Y-116367820D01*
X112769737Y-116266503D01*
X112766703Y-116259179D01*
X112709397Y-116120827D01*
X112709390Y-116120814D01*
X112621789Y-115989711D01*
X112621786Y-115989707D01*
X112510292Y-115878213D01*
X112510288Y-115878210D01*
X112379185Y-115790609D01*
X112379172Y-115790602D01*
X112233501Y-115730264D01*
X112233489Y-115730261D01*
X112078845Y-115699500D01*
X112078842Y-115699500D01*
X111921158Y-115699500D01*
X111921155Y-115699500D01*
X111766510Y-115730261D01*
X111766498Y-115730264D01*
X111620827Y-115790602D01*
X111620814Y-115790609D01*
X111489711Y-115878210D01*
X111489707Y-115878213D01*
X111378213Y-115989707D01*
X111378210Y-115989711D01*
X111290609Y-116120814D01*
X111290602Y-116120827D01*
X111230264Y-116266498D01*
X111230261Y-116266510D01*
X111199500Y-116421153D01*
X111199500Y-116578846D01*
X111230261Y-116733489D01*
X111230264Y-116733501D01*
X111290602Y-116879172D01*
X111290609Y-116879185D01*
X111378602Y-117010874D01*
X111399480Y-117077551D01*
X111399500Y-117079765D01*
X111399500Y-119699902D01*
X111379815Y-119766941D01*
X111363181Y-119787583D01*
X106485339Y-124665425D01*
X106424016Y-124698910D01*
X106421850Y-124699361D01*
X106266508Y-124730261D01*
X106266498Y-124730264D01*
X106120827Y-124790602D01*
X106120814Y-124790609D01*
X105989711Y-124878210D01*
X105989707Y-124878213D01*
X105878213Y-124989707D01*
X105878210Y-124989711D01*
X105790609Y-125120814D01*
X105790602Y-125120827D01*
X105730264Y-125266498D01*
X105730261Y-125266510D01*
X105699500Y-125421153D01*
X104750500Y-125421153D01*
X104750500Y-105646082D01*
X104750500Y-105646079D01*
X104721659Y-105501092D01*
X104721658Y-105501091D01*
X104721658Y-105501087D01*
X104680761Y-105402352D01*
X104665086Y-105364509D01*
X104665085Y-105364507D01*
X104632186Y-105315270D01*
X104632185Y-105315268D01*
X104582956Y-105241589D01*
X104582952Y-105241584D01*
X102793260Y-103451892D01*
X102759775Y-103390569D01*
X102758468Y-103344815D01*
X102762500Y-103319361D01*
X102762500Y-103120639D01*
X102731413Y-102924364D01*
X102700709Y-102829866D01*
X102670006Y-102735370D01*
X102670005Y-102735367D01*
X102611640Y-102620821D01*
X102579787Y-102558306D01*
X102462981Y-102397536D01*
X102322464Y-102257019D01*
X102301613Y-102241870D01*
X102258949Y-102186540D01*
X102250500Y-102141553D01*
X102250500Y-101758446D01*
X102270185Y-101691407D01*
X102301614Y-101658129D01*
X102322464Y-101642981D01*
X102462981Y-101502464D01*
X102579787Y-101341694D01*
X102670005Y-101164632D01*
X102731413Y-100975636D01*
X102762500Y-100779361D01*
X102762500Y-100580639D01*
X102758468Y-100555185D01*
X102767422Y-100485893D01*
X102793257Y-100448109D01*
X104582952Y-98658416D01*
X104632186Y-98584729D01*
X104665084Y-98535495D01*
X104721658Y-98398913D01*
X104750500Y-98253918D01*
X104750500Y-82606082D01*
X104750500Y-82606079D01*
X104721659Y-82461092D01*
X104721658Y-82461091D01*
X104721658Y-82461087D01*
X104693751Y-82393713D01*
X104665087Y-82324511D01*
X104665080Y-82324498D01*
X104582952Y-82201585D01*
X104553161Y-82171794D01*
X104478416Y-82097049D01*
X102913260Y-80531893D01*
X102879775Y-80470570D01*
X102878468Y-80424815D01*
X102882500Y-80399361D01*
X102882500Y-80200639D01*
X102851413Y-80004364D01*
X102790005Y-79815368D01*
X102790005Y-79815367D01*
X102744035Y-79725149D01*
X102699787Y-79638306D01*
X102582981Y-79477536D01*
X102442464Y-79337019D01*
X102421613Y-79321870D01*
X102378949Y-79266540D01*
X102370500Y-79221553D01*
X102370500Y-78838446D01*
X102390185Y-78771407D01*
X102421614Y-78738129D01*
X102442464Y-78722981D01*
X102582981Y-78582464D01*
X102699787Y-78421694D01*
X102790005Y-78244632D01*
X102851413Y-78055636D01*
X102882500Y-77859361D01*
X102882500Y-77660639D01*
X102878468Y-77635184D01*
X102887422Y-77565892D01*
X102913257Y-77528108D01*
X104582951Y-75858416D01*
X104665084Y-75735495D01*
X104721658Y-75598913D01*
X104750500Y-75453918D01*
X104750500Y-75306083D01*
X104750500Y-60066082D01*
X104750500Y-60066079D01*
X104721659Y-59921092D01*
X104721658Y-59921091D01*
X104721658Y-59921087D01*
X104710273Y-59893600D01*
X104665087Y-59784511D01*
X104665080Y-59784498D01*
X104582952Y-59661585D01*
X104535187Y-59613820D01*
X104478416Y-59557049D01*
X102913260Y-57991893D01*
X102879775Y-57930570D01*
X102878468Y-57884815D01*
X102882500Y-57859361D01*
X102882500Y-57660639D01*
X102851413Y-57464364D01*
X102790005Y-57275368D01*
X102790005Y-57275367D01*
X102722125Y-57142147D01*
X102699787Y-57098306D01*
X102582981Y-56937536D01*
X102442464Y-56797019D01*
X102421613Y-56781870D01*
X102378949Y-56726540D01*
X102370500Y-56681553D01*
X102370500Y-56298446D01*
X102390185Y-56231407D01*
X102421614Y-56198129D01*
X102442464Y-56182981D01*
X102582981Y-56042464D01*
X102699787Y-55881694D01*
X102790005Y-55704632D01*
X102851413Y-55515636D01*
X102882500Y-55319361D01*
X102882500Y-55120639D01*
X102851413Y-54924364D01*
X102790005Y-54735368D01*
X102790005Y-54735367D01*
X102699786Y-54558305D01*
X102654130Y-54495465D01*
X102582981Y-54397536D01*
X102442464Y-54257019D01*
X102281694Y-54140213D01*
X102255784Y-54127011D01*
X102104632Y-54049994D01*
X102104629Y-54049993D01*
X101915637Y-53988587D01*
X101817498Y-53973043D01*
X101719361Y-53957500D01*
X101520639Y-53957500D01*
X101455214Y-53967862D01*
X101324362Y-53988587D01*
X101135370Y-54049993D01*
X101135367Y-54049994D01*
X100958305Y-54140213D01*
X100797533Y-54257021D01*
X100657021Y-54397533D01*
X100540213Y-54558305D01*
X100449994Y-54735367D01*
X100449993Y-54735370D01*
X100388587Y-54924362D01*
X100388587Y-54924364D01*
X100357500Y-55120639D01*
X100357500Y-55319361D01*
X100370351Y-55400500D01*
X100388587Y-55515637D01*
X100449993Y-55704629D01*
X100449994Y-55704632D01*
X100528074Y-55857870D01*
X100540213Y-55881694D01*
X100657019Y-56042464D01*
X100797536Y-56182981D01*
X100818384Y-56198128D01*
X100861050Y-56253455D01*
X100869500Y-56298446D01*
X100869500Y-56681553D01*
X100849815Y-56748592D01*
X100818387Y-56781869D01*
X100808126Y-56789324D01*
X100797534Y-56797020D01*
X100657021Y-56937533D01*
X100540213Y-57098305D01*
X100449994Y-57275367D01*
X100449993Y-57275370D01*
X100388587Y-57464362D01*
X100357500Y-57660639D01*
X100357500Y-57859360D01*
X100388587Y-58055637D01*
X100449993Y-58244629D01*
X100449994Y-58244632D01*
X100518863Y-58379792D01*
X100540213Y-58421694D01*
X100657019Y-58582464D01*
X100797536Y-58722981D01*
X100958306Y-58839787D01*
X101115332Y-58919796D01*
X101166127Y-58967769D01*
X101182922Y-59035590D01*
X101160385Y-59101725D01*
X101115332Y-59140764D01*
X100958566Y-59220641D01*
X100921283Y-59247729D01*
X100921282Y-59247730D01*
X101567153Y-59893600D01*
X101566496Y-59893600D01*
X101463135Y-59921295D01*
X101370464Y-59974799D01*
X101294799Y-60050464D01*
X101241295Y-60143135D01*
X101213600Y-60246496D01*
X101213600Y-60247152D01*
X100567730Y-59601282D01*
X100567729Y-59601283D01*
X100540643Y-59638564D01*
X100450457Y-59815562D01*
X100389075Y-60004476D01*
X100389075Y-60004479D01*
X100358000Y-60200678D01*
X100358000Y-60399321D01*
X100389075Y-60595520D01*
X100389075Y-60595523D01*
X100450457Y-60784437D01*
X100540641Y-60961432D01*
X100567730Y-60998715D01*
X100567731Y-60998716D01*
X101213600Y-60352847D01*
X101213600Y-60353504D01*
X101241295Y-60456865D01*
X101294799Y-60549536D01*
X101370464Y-60625201D01*
X101463135Y-60678705D01*
X101566496Y-60706400D01*
X101567153Y-60706400D01*
X100921283Y-61352268D01*
X100921283Y-61352269D01*
X100958567Y-61379358D01*
X101115331Y-61459234D01*
X101166127Y-61507209D01*
X101182922Y-61575030D01*
X101160384Y-61641165D01*
X101115331Y-61680204D01*
X100958305Y-61760213D01*
X100797533Y-61877021D01*
X100657021Y-62017533D01*
X100540213Y-62178305D01*
X100449994Y-62355367D01*
X100449993Y-62355370D01*
X100388587Y-62544362D01*
X100357500Y-62740639D01*
X100357500Y-62939360D01*
X100388586Y-63135636D01*
X100389131Y-63137903D01*
X100389086Y-63138790D01*
X100389349Y-63140448D01*
X100389000Y-63140503D01*
X100385638Y-63207685D01*
X100356237Y-63254526D01*
X95631286Y-67979478D01*
X95519481Y-68091282D01*
X95519475Y-68091290D01*
X95484551Y-68151782D01*
X95484499Y-68151872D01*
X95484123Y-68152522D01*
X95433516Y-68200696D01*
X95364898Y-68213862D01*
X95300055Y-68187840D01*
X95259574Y-68130892D01*
X95254315Y-68071037D01*
X95262500Y-68019361D01*
X95262500Y-67820639D01*
X95231413Y-67624364D01*
X95184447Y-67479815D01*
X95170006Y-67435370D01*
X95170005Y-67435367D01*
X95110631Y-67318841D01*
X95079787Y-67258306D01*
X94962981Y-67097536D01*
X94822464Y-66957019D01*
X94661694Y-66840213D01*
X94505218Y-66760484D01*
X94454423Y-66712510D01*
X94437628Y-66644689D01*
X94460165Y-66578554D01*
X94505218Y-66539515D01*
X94661694Y-66459787D01*
X94822464Y-66342981D01*
X94962981Y-66202464D01*
X95079787Y-66041694D01*
X95170005Y-65864632D01*
X95231413Y-65675636D01*
X95262500Y-65479361D01*
X95262500Y-65280639D01*
X95231413Y-65084364D01*
X95200709Y-64989866D01*
X95170006Y-64895370D01*
X95170005Y-64895367D01*
X95100937Y-64759815D01*
X95079787Y-64718306D01*
X94962981Y-64557536D01*
X94822464Y-64417019D01*
X94661694Y-64300213D01*
X94505218Y-64220484D01*
X94454423Y-64172510D01*
X94437628Y-64104689D01*
X94460165Y-64038554D01*
X94505218Y-63999515D01*
X94661694Y-63919787D01*
X94822464Y-63802981D01*
X94962981Y-63662464D01*
X95079787Y-63501694D01*
X95170005Y-63324632D01*
X95231413Y-63135636D01*
X95262500Y-62939361D01*
X95262500Y-62740639D01*
X95231413Y-62544364D01*
X95170005Y-62355368D01*
X95170005Y-62355367D01*
X95100937Y-62219815D01*
X95079787Y-62178306D01*
X94962981Y-62017536D01*
X94822464Y-61877019D01*
X94661694Y-61760213D01*
X94505218Y-61680484D01*
X94454423Y-61632510D01*
X94437628Y-61564689D01*
X94460165Y-61498554D01*
X94505218Y-61459515D01*
X94661694Y-61379787D01*
X94822464Y-61262981D01*
X94962981Y-61122464D01*
X95079787Y-60961694D01*
X95170005Y-60784632D01*
X95231413Y-60595636D01*
X95262500Y-60399361D01*
X95262500Y-60200639D01*
X95231413Y-60004364D01*
X95170005Y-59815368D01*
X95170005Y-59815367D01*
X95091648Y-59661585D01*
X95079787Y-59638306D01*
X94962981Y-59477536D01*
X94822464Y-59337019D01*
X94661694Y-59220213D01*
X94505218Y-59140484D01*
X94454423Y-59092510D01*
X94437628Y-59024689D01*
X94460165Y-58958554D01*
X94505218Y-58919515D01*
X94661694Y-58839787D01*
X94822464Y-58722981D01*
X94962981Y-58582464D01*
X95079787Y-58421694D01*
X95170005Y-58244632D01*
X95231413Y-58055636D01*
X95262500Y-57859361D01*
X95262500Y-57660639D01*
X95231413Y-57464364D01*
X95170005Y-57275368D01*
X95170005Y-57275367D01*
X95102125Y-57142147D01*
X95079787Y-57098306D01*
X94962981Y-56937536D01*
X94822464Y-56797019D01*
X94698310Y-56706816D01*
X94655646Y-56651487D01*
X94649667Y-56581874D01*
X94682273Y-56520079D01*
X94743112Y-56485721D01*
X94771196Y-56482499D01*
X94809872Y-56482499D01*
X94869483Y-56476091D01*
X95004331Y-56425796D01*
X95119546Y-56339546D01*
X95205796Y-56224331D01*
X95256091Y-56089483D01*
X95262500Y-56029873D01*
X95262499Y-54410128D01*
X95256091Y-54350517D01*
X95221219Y-54257021D01*
X95205797Y-54215671D01*
X95205793Y-54215664D01*
X95119547Y-54100455D01*
X95119544Y-54100452D01*
X95004335Y-54014206D01*
X95004328Y-54014202D01*
X94869482Y-53963908D01*
X94869483Y-53963908D01*
X94809883Y-53957501D01*
X94809881Y-53957500D01*
X94809873Y-53957500D01*
X94809864Y-53957500D01*
X93190129Y-53957500D01*
X93190123Y-53957501D01*
X93130516Y-53963908D01*
X92995671Y-54014202D01*
X92995664Y-54014206D01*
X92880455Y-54100452D01*
X92880452Y-54100455D01*
X92794206Y-54215664D01*
X92794202Y-54215671D01*
X92743908Y-54350518D01*
X92743598Y-54351831D01*
X92743078Y-54352743D01*
X92741198Y-54357785D01*
X92740380Y-54357480D01*
X92709023Y-54412546D01*
X92647112Y-54444931D01*
X92577520Y-54438702D01*
X92522344Y-54395839D01*
X92504991Y-54361631D01*
X92485220Y-54300781D01*
X92392287Y-54118390D01*
X92351416Y-54062135D01*
X92271971Y-53952786D01*
X92127213Y-53808028D01*
X91961613Y-53687715D01*
X91961612Y-53687714D01*
X91961610Y-53687713D01*
X91904653Y-53658691D01*
X91779223Y-53594781D01*
X91584534Y-53531522D01*
X91409995Y-53503878D01*
X91382352Y-53499500D01*
X91177648Y-53499500D01*
X91153329Y-53503351D01*
X90975465Y-53531522D01*
X90780776Y-53594781D01*
X90598386Y-53687715D01*
X90432786Y-53808028D01*
X90288028Y-53952786D01*
X90167715Y-54118386D01*
X90074781Y-54300776D01*
X90011522Y-54495465D01*
X89979500Y-54697648D01*
X89979500Y-54902351D01*
X90011522Y-55104534D01*
X90074781Y-55299223D01*
X90126385Y-55400500D01*
X90155408Y-55457461D01*
X90167715Y-55481613D01*
X90255626Y-55602614D01*
X90279106Y-55668421D01*
X90263280Y-55736474D01*
X90213174Y-55785169D01*
X90155310Y-55799499D01*
X90100943Y-55799499D01*
X90100939Y-55799499D01*
X90093333Y-55799500D01*
X90093332Y-55799499D01*
X90093331Y-55799500D01*
X82244691Y-55799500D01*
X82177652Y-55779815D01*
X82131897Y-55727011D01*
X82121953Y-55657853D01*
X82144373Y-55602615D01*
X82207565Y-55515637D01*
X82232287Y-55481610D01*
X82325220Y-55299219D01*
X82388477Y-55104534D01*
X82420500Y-54902352D01*
X82420500Y-54697648D01*
X82388477Y-54495466D01*
X82325220Y-54300781D01*
X82325218Y-54300778D01*
X82325218Y-54300776D01*
X82281853Y-54215669D01*
X82232287Y-54118390D01*
X82191416Y-54062135D01*
X82111971Y-53952786D01*
X81967213Y-53808028D01*
X81801613Y-53687715D01*
X81801612Y-53687714D01*
X81801610Y-53687713D01*
X81744653Y-53658691D01*
X81619223Y-53594781D01*
X81424534Y-53531522D01*
X81249995Y-53503878D01*
X81222352Y-53499500D01*
X81017648Y-53499500D01*
X80993329Y-53503351D01*
X80815465Y-53531522D01*
X80620776Y-53594781D01*
X80438386Y-53687715D01*
X80272786Y-53808028D01*
X80128028Y-53952786D01*
X80007715Y-54118385D01*
X80000883Y-54131795D01*
X79952909Y-54182591D01*
X79890398Y-54199500D01*
X74974499Y-54199500D01*
X74907460Y-54179815D01*
X74861705Y-54127011D01*
X74850499Y-54075500D01*
X74850499Y-54062129D01*
X74850498Y-54062123D01*
X74850497Y-54062116D01*
X74844091Y-54002517D01*
X74838895Y-53988587D01*
X74793797Y-53867671D01*
X74793793Y-53867664D01*
X74707547Y-53752455D01*
X74707544Y-53752452D01*
X74592335Y-53666206D01*
X74592328Y-53666202D01*
X74457482Y-53615908D01*
X74457483Y-53615908D01*
X74397883Y-53609501D01*
X74397881Y-53609500D01*
X74397873Y-53609500D01*
X74397864Y-53609500D01*
X72602129Y-53609500D01*
X72602123Y-53609501D01*
X72542516Y-53615908D01*
X72407671Y-53666202D01*
X72407664Y-53666206D01*
X72292455Y-53752452D01*
X72292452Y-53752455D01*
X72206206Y-53867664D01*
X72206202Y-53867671D01*
X72155908Y-54002517D01*
X72150804Y-54049994D01*
X72149501Y-54062123D01*
X72149500Y-54062135D01*
X72149500Y-55857870D01*
X72149501Y-55857876D01*
X72155908Y-55917483D01*
X72206202Y-56052328D01*
X72206206Y-56052335D01*
X72292452Y-56167544D01*
X72292455Y-56167547D01*
X72407664Y-56253793D01*
X72407671Y-56253797D01*
X72539082Y-56302810D01*
X72595016Y-56344681D01*
X72619433Y-56410145D01*
X72604582Y-56478418D01*
X72583431Y-56506673D01*
X72469889Y-56620215D01*
X72344951Y-56792179D01*
X72248444Y-56981585D01*
X72182753Y-57183760D01*
X72149500Y-57393713D01*
X72149500Y-57606286D01*
X72180900Y-57804542D01*
X72182754Y-57816243D01*
X72239826Y-57991893D01*
X72248444Y-58018414D01*
X72344951Y-58207820D01*
X72469890Y-58379786D01*
X72620213Y-58530109D01*
X72792182Y-58655050D01*
X72800946Y-58659516D01*
X72851742Y-58707491D01*
X72868536Y-58775312D01*
X72845998Y-58841447D01*
X72800946Y-58880484D01*
X72792182Y-58884949D01*
X72620213Y-59009890D01*
X72469890Y-59160213D01*
X72344951Y-59332179D01*
X72248444Y-59521585D01*
X72182753Y-59723760D01*
X72149500Y-59933713D01*
X72149500Y-60146286D01*
X72173061Y-60295048D01*
X72182754Y-60356243D01*
X72215769Y-60457853D01*
X72248444Y-60558414D01*
X72344951Y-60747820D01*
X72469890Y-60919786D01*
X72620213Y-61070109D01*
X72792182Y-61195050D01*
X72800946Y-61199516D01*
X72851742Y-61247491D01*
X72868536Y-61315312D01*
X72845998Y-61381447D01*
X72800946Y-61420484D01*
X72792182Y-61424949D01*
X72620213Y-61549890D01*
X72469890Y-61700213D01*
X72344951Y-61872179D01*
X72248444Y-62061585D01*
X72182753Y-62263760D01*
X72152560Y-62454394D01*
X72149500Y-62473713D01*
X72149500Y-62686287D01*
X72182754Y-62896243D01*
X72224889Y-63025922D01*
X72248444Y-63098414D01*
X72344951Y-63287820D01*
X72469890Y-63459786D01*
X72620213Y-63610109D01*
X72792182Y-63735050D01*
X72800946Y-63739516D01*
X72851742Y-63787491D01*
X72868536Y-63855312D01*
X72845998Y-63921447D01*
X72800946Y-63960484D01*
X72792182Y-63964949D01*
X72620213Y-64089890D01*
X72469890Y-64240213D01*
X72344951Y-64412179D01*
X72248444Y-64601585D01*
X72182753Y-64803760D01*
X72168244Y-64895367D01*
X72149500Y-65013713D01*
X72149500Y-65226287D01*
X72154132Y-65255534D01*
X72182753Y-65436239D01*
X72248444Y-65638414D01*
X72344951Y-65827820D01*
X72469890Y-65999786D01*
X72620213Y-66150109D01*
X72792182Y-66275050D01*
X72800946Y-66279516D01*
X72851742Y-66327491D01*
X72868536Y-66395312D01*
X72845998Y-66461447D01*
X72800946Y-66500484D01*
X72792182Y-66504949D01*
X72620213Y-66629890D01*
X72469890Y-66780213D01*
X72344951Y-66952179D01*
X72248444Y-67141585D01*
X72182753Y-67343760D01*
X72149500Y-67553713D01*
X72149500Y-67766287D01*
X72155911Y-67806765D01*
X72162317Y-67847213D01*
X72182754Y-67976243D01*
X72239790Y-68151782D01*
X72248444Y-68178414D01*
X72344951Y-68367820D01*
X72469890Y-68539786D01*
X72620213Y-68690109D01*
X72792182Y-68815050D01*
X72800946Y-68819516D01*
X72851742Y-68867491D01*
X72868536Y-68935312D01*
X72845998Y-69001447D01*
X72800946Y-69040484D01*
X72792182Y-69044949D01*
X72620213Y-69169890D01*
X72469890Y-69320213D01*
X72344951Y-69492179D01*
X72248444Y-69681585D01*
X72182753Y-69883760D01*
X72160847Y-70022073D01*
X72149500Y-70093713D01*
X72149500Y-70306287D01*
X72158109Y-70360639D01*
X72182753Y-70516239D01*
X72182753Y-70516241D01*
X72182754Y-70516243D01*
X72219410Y-70629059D01*
X72248444Y-70718414D01*
X72344951Y-70907820D01*
X72469890Y-71079786D01*
X72620213Y-71230109D01*
X72792182Y-71355050D01*
X72800946Y-71359516D01*
X72851742Y-71407491D01*
X72868536Y-71475312D01*
X72845998Y-71541447D01*
X72800946Y-71580484D01*
X72792182Y-71584949D01*
X72620213Y-71709890D01*
X72469890Y-71860213D01*
X72344951Y-72032179D01*
X72248444Y-72221585D01*
X72182753Y-72423760D01*
X72167891Y-72517596D01*
X72149500Y-72633713D01*
X72149500Y-72846287D01*
X72182754Y-73056243D01*
X72244806Y-73247219D01*
X72248444Y-73258414D01*
X72344951Y-73447820D01*
X72469890Y-73619786D01*
X72620213Y-73770109D01*
X72792179Y-73895048D01*
X72792181Y-73895049D01*
X72792184Y-73895051D01*
X72981588Y-73991557D01*
X73183757Y-74057246D01*
X73393713Y-74090500D01*
X73393714Y-74090500D01*
X73606286Y-74090500D01*
X73606287Y-74090500D01*
X73816243Y-74057246D01*
X73858523Y-74043507D01*
X73928359Y-74041511D01*
X73973441Y-74067395D01*
X73974839Y-74065574D01*
X73981281Y-74070517D01*
X73981284Y-74070520D01*
X73981287Y-74070521D01*
X73981290Y-74070524D01*
X74118209Y-74149573D01*
X74118216Y-74149577D01*
X74270943Y-74190501D01*
X74270945Y-74190501D01*
X74436654Y-74190501D01*
X74436670Y-74190500D01*
X90003331Y-74190500D01*
X90003347Y-74190501D01*
X90010943Y-74190501D01*
X90169054Y-74190501D01*
X90169057Y-74190501D01*
X90321785Y-74149577D01*
X90371904Y-74120639D01*
X90458716Y-74070520D01*
X90570520Y-73958716D01*
X90570520Y-73958714D01*
X90580728Y-73948507D01*
X90580730Y-73948504D01*
X90835158Y-73694075D01*
X90896479Y-73660592D01*
X90961151Y-73663825D01*
X90975466Y-73668477D01*
X91177648Y-73700500D01*
X91177649Y-73700500D01*
X91382351Y-73700500D01*
X91382352Y-73700500D01*
X91584534Y-73668477D01*
X91779219Y-73605220D01*
X91961610Y-73512287D01*
X92079227Y-73426834D01*
X92127213Y-73391971D01*
X92127215Y-73391968D01*
X92127219Y-73391966D01*
X92271966Y-73247219D01*
X92271968Y-73247215D01*
X92271971Y-73247213D01*
X92392284Y-73081614D01*
X92392283Y-73081614D01*
X92392287Y-73081610D01*
X92399117Y-73068204D01*
X92447091Y-73017409D01*
X92509602Y-73000500D01*
X92615936Y-73000500D01*
X92682975Y-73020185D01*
X92728730Y-73072989D01*
X92738409Y-73105102D01*
X92768587Y-73295637D01*
X92829993Y-73484629D01*
X92829994Y-73484632D01*
X92920076Y-73661425D01*
X92920213Y-73661694D01*
X93037019Y-73822464D01*
X93177536Y-73962981D01*
X93338306Y-74079787D01*
X93418482Y-74120639D01*
X93515367Y-74170005D01*
X93515370Y-74170006D01*
X93609866Y-74200709D01*
X93704364Y-74231413D01*
X93900639Y-74262500D01*
X93900640Y-74262500D01*
X94099360Y-74262500D01*
X94099361Y-74262500D01*
X94295636Y-74231413D01*
X94484632Y-74170005D01*
X94661694Y-74079787D01*
X94822464Y-73962981D01*
X94962981Y-73822464D01*
X95079787Y-73661694D01*
X95165015Y-73494424D01*
X95212990Y-73443629D01*
X95280811Y-73426834D01*
X95346946Y-73449371D01*
X95390397Y-73504087D01*
X95399500Y-73550720D01*
X95399500Y-76641867D01*
X95379815Y-76708906D01*
X95327011Y-76754661D01*
X95257853Y-76764605D01*
X95194297Y-76735580D01*
X95176234Y-76716179D01*
X95151090Y-76682591D01*
X95119546Y-76640454D01*
X95119544Y-76640453D01*
X95119544Y-76640452D01*
X95004335Y-76554206D01*
X95004328Y-76554202D01*
X94869482Y-76503908D01*
X94869483Y-76503908D01*
X94809883Y-76497501D01*
X94809881Y-76497500D01*
X94809873Y-76497500D01*
X94809864Y-76497500D01*
X93190129Y-76497500D01*
X93190123Y-76497501D01*
X93130516Y-76503908D01*
X92995671Y-76554202D01*
X92995664Y-76554206D01*
X92880455Y-76640452D01*
X92880452Y-76640455D01*
X92794206Y-76755664D01*
X92794202Y-76755671D01*
X92745486Y-76886287D01*
X92703615Y-76942221D01*
X92638150Y-76966638D01*
X92569877Y-76951786D01*
X92520472Y-76902381D01*
X92511373Y-76881272D01*
X92485220Y-76800781D01*
X92392287Y-76618390D01*
X92345654Y-76554204D01*
X92271971Y-76452786D01*
X92127213Y-76308028D01*
X91961613Y-76187715D01*
X91961612Y-76187714D01*
X91961610Y-76187713D01*
X91904653Y-76158691D01*
X91779223Y-76094781D01*
X91584534Y-76031522D01*
X91409995Y-76003878D01*
X91382352Y-75999500D01*
X91177648Y-75999500D01*
X91153329Y-76003351D01*
X90975465Y-76031522D01*
X90780776Y-76094781D01*
X90598386Y-76187715D01*
X90432786Y-76308028D01*
X90288028Y-76452786D01*
X90167715Y-76618386D01*
X90074781Y-76800776D01*
X90011522Y-76995465D01*
X89979500Y-77197648D01*
X89979500Y-77402351D01*
X90011522Y-77604534D01*
X90074781Y-77799223D01*
X90126385Y-77900500D01*
X90155408Y-77957461D01*
X90167715Y-77981613D01*
X90255626Y-78102614D01*
X90279106Y-78168421D01*
X90263280Y-78236474D01*
X90213174Y-78285169D01*
X90155310Y-78299499D01*
X90080943Y-78299499D01*
X90080939Y-78299499D01*
X90073333Y-78299500D01*
X90073332Y-78299499D01*
X90073331Y-78299500D01*
X82244691Y-78299500D01*
X82177652Y-78279815D01*
X82131897Y-78227011D01*
X82121953Y-78157853D01*
X82144373Y-78102615D01*
X82201126Y-78024500D01*
X82232287Y-77981610D01*
X82325220Y-77799219D01*
X82388477Y-77604534D01*
X82420500Y-77402352D01*
X82420500Y-77197648D01*
X82388477Y-76995466D01*
X82373745Y-76950127D01*
X82325218Y-76800776D01*
X82278407Y-76708906D01*
X82232287Y-76618390D01*
X82185654Y-76554204D01*
X82111971Y-76452786D01*
X81967213Y-76308028D01*
X81801613Y-76187715D01*
X81801612Y-76187714D01*
X81801610Y-76187713D01*
X81744653Y-76158691D01*
X81619223Y-76094781D01*
X81424534Y-76031522D01*
X81249995Y-76003878D01*
X81222352Y-75999500D01*
X81017648Y-75999500D01*
X80993329Y-76003351D01*
X80815465Y-76031522D01*
X80620776Y-76094781D01*
X80438386Y-76187715D01*
X80272786Y-76308028D01*
X80128028Y-76452786D01*
X80007715Y-76618385D01*
X80000883Y-76631795D01*
X79952909Y-76682591D01*
X79890398Y-76699500D01*
X75094499Y-76699500D01*
X75027460Y-76679815D01*
X74981705Y-76627011D01*
X74970499Y-76575500D01*
X74970499Y-76522129D01*
X74970498Y-76522123D01*
X74970497Y-76522116D01*
X74964091Y-76462517D01*
X74913796Y-76327669D01*
X74913795Y-76327668D01*
X74913793Y-76327664D01*
X74827547Y-76212455D01*
X74827544Y-76212452D01*
X74712335Y-76126206D01*
X74712328Y-76126202D01*
X74577482Y-76075908D01*
X74577483Y-76075908D01*
X74517883Y-76069501D01*
X74517881Y-76069500D01*
X74517873Y-76069500D01*
X74517864Y-76069500D01*
X72722129Y-76069500D01*
X72722123Y-76069501D01*
X72662516Y-76075908D01*
X72527671Y-76126202D01*
X72527664Y-76126206D01*
X72412455Y-76212452D01*
X72412452Y-76212455D01*
X72326206Y-76327664D01*
X72326202Y-76327671D01*
X72275908Y-76462517D01*
X72269501Y-76522116D01*
X72269501Y-76522123D01*
X72269500Y-76522135D01*
X72269500Y-78317870D01*
X72269501Y-78317876D01*
X72275908Y-78377483D01*
X72326202Y-78512328D01*
X72326206Y-78512335D01*
X72412452Y-78627544D01*
X72412455Y-78627547D01*
X72527664Y-78713793D01*
X72527671Y-78713797D01*
X72659082Y-78762810D01*
X72715016Y-78804681D01*
X72739433Y-78870145D01*
X72724582Y-78938418D01*
X72703431Y-78966673D01*
X72589889Y-79080215D01*
X72464951Y-79252179D01*
X72368444Y-79441585D01*
X72302753Y-79643760D01*
X72269500Y-79853713D01*
X72269500Y-80066286D01*
X72301723Y-80269737D01*
X72302754Y-80276243D01*
X72357535Y-80444842D01*
X72368444Y-80478414D01*
X72464951Y-80667820D01*
X72589890Y-80839786D01*
X72740213Y-80990109D01*
X72912182Y-81115050D01*
X72920946Y-81119516D01*
X72971742Y-81167491D01*
X72988536Y-81235312D01*
X72965998Y-81301447D01*
X72920946Y-81340484D01*
X72912182Y-81344949D01*
X72740213Y-81469890D01*
X72589890Y-81620213D01*
X72464951Y-81792179D01*
X72368444Y-81981585D01*
X72302753Y-82183760D01*
X72269500Y-82393713D01*
X72269500Y-82606286D01*
X72300553Y-82802351D01*
X72302754Y-82816243D01*
X72367617Y-83015871D01*
X72368444Y-83018414D01*
X72464951Y-83207820D01*
X72589890Y-83379786D01*
X72740213Y-83530109D01*
X72912182Y-83655050D01*
X72920946Y-83659516D01*
X72971742Y-83707491D01*
X72988536Y-83775312D01*
X72965998Y-83841447D01*
X72920946Y-83880484D01*
X72912182Y-83884949D01*
X72740213Y-84009890D01*
X72589890Y-84160213D01*
X72464951Y-84332179D01*
X72368444Y-84521585D01*
X72302753Y-84723760D01*
X72269500Y-84933713D01*
X72269500Y-85146286D01*
X72302186Y-85352661D01*
X72302754Y-85356243D01*
X72342757Y-85479360D01*
X72368444Y-85558414D01*
X72464951Y-85747820D01*
X72589890Y-85919786D01*
X72740213Y-86070109D01*
X72912182Y-86195050D01*
X72920946Y-86199516D01*
X72971742Y-86247491D01*
X72988536Y-86315312D01*
X72965998Y-86381447D01*
X72920946Y-86420484D01*
X72912182Y-86424949D01*
X72740213Y-86549890D01*
X72589890Y-86700213D01*
X72464951Y-86872179D01*
X72368444Y-87061585D01*
X72302753Y-87263760D01*
X72269500Y-87473713D01*
X72269500Y-87686286D01*
X72288063Y-87803492D01*
X72302754Y-87896243D01*
X72342757Y-88019360D01*
X72368444Y-88098414D01*
X72464951Y-88287820D01*
X72589890Y-88459786D01*
X72740213Y-88610109D01*
X72912182Y-88735050D01*
X72920946Y-88739516D01*
X72971742Y-88787491D01*
X72988536Y-88855312D01*
X72965998Y-88921447D01*
X72920946Y-88960484D01*
X72912182Y-88964949D01*
X72740213Y-89089890D01*
X72589890Y-89240213D01*
X72464951Y-89412179D01*
X72368444Y-89601585D01*
X72302753Y-89803760D01*
X72288228Y-89895468D01*
X72269500Y-90013713D01*
X72269500Y-90226287D01*
X72302754Y-90436243D01*
X72366126Y-90631282D01*
X72368444Y-90638414D01*
X72464951Y-90827820D01*
X72589890Y-90999786D01*
X72740213Y-91150109D01*
X72912182Y-91275050D01*
X72920946Y-91279516D01*
X72971742Y-91327491D01*
X72988536Y-91395312D01*
X72965998Y-91461447D01*
X72920946Y-91500484D01*
X72912182Y-91504949D01*
X72740213Y-91629890D01*
X72589890Y-91780213D01*
X72464951Y-91952179D01*
X72368444Y-92141585D01*
X72302753Y-92343760D01*
X72276378Y-92510289D01*
X72269500Y-92553713D01*
X72269500Y-92766287D01*
X72302754Y-92976243D01*
X72362084Y-93158842D01*
X72368444Y-93178414D01*
X72464951Y-93367820D01*
X72589890Y-93539786D01*
X72740213Y-93690109D01*
X72912182Y-93815050D01*
X72920946Y-93819516D01*
X72971742Y-93867491D01*
X72988536Y-93935312D01*
X72965998Y-94001447D01*
X72920946Y-94040484D01*
X72912182Y-94044949D01*
X72740213Y-94169890D01*
X72589890Y-94320213D01*
X72464951Y-94492179D01*
X72368444Y-94681585D01*
X72302753Y-94883760D01*
X72269500Y-95093713D01*
X72269500Y-95306286D01*
X72300057Y-95499219D01*
X72302754Y-95516243D01*
X72356486Y-95681613D01*
X72368444Y-95718414D01*
X72464951Y-95907820D01*
X72589890Y-96079786D01*
X72740213Y-96230109D01*
X72912179Y-96355048D01*
X72912181Y-96355049D01*
X72912184Y-96355051D01*
X73101588Y-96451557D01*
X73303757Y-96517246D01*
X73513713Y-96550500D01*
X73513714Y-96550500D01*
X73726286Y-96550500D01*
X73726287Y-96550500D01*
X73936243Y-96517246D01*
X74138412Y-96451557D01*
X74327816Y-96355051D01*
X74446976Y-96268477D01*
X74499786Y-96230109D01*
X74499788Y-96230106D01*
X74499792Y-96230104D01*
X74650104Y-96079792D01*
X74690180Y-96024632D01*
X74737625Y-95959330D01*
X74775048Y-95907820D01*
X74775047Y-95907820D01*
X74775051Y-95907816D01*
X74871557Y-95718412D01*
X74937246Y-95516243D01*
X74970500Y-95306287D01*
X74970500Y-95093713D01*
X74937246Y-94883757D01*
X74923507Y-94841476D01*
X74921511Y-94771637D01*
X74953755Y-94715479D01*
X75132418Y-94536818D01*
X75193742Y-94503334D01*
X75220099Y-94500500D01*
X79744724Y-94500500D01*
X79811763Y-94520185D01*
X79857518Y-94572989D01*
X79867462Y-94642147D01*
X79862655Y-94662817D01*
X79852011Y-94695574D01*
X79852010Y-94695581D01*
X79820000Y-94897682D01*
X79820000Y-95102317D01*
X79852009Y-95304417D01*
X79915244Y-95499031D01*
X80008141Y-95681350D01*
X80008147Y-95681359D01*
X80040523Y-95725921D01*
X80040524Y-95725922D01*
X80720000Y-95046446D01*
X80720000Y-95052661D01*
X80747259Y-95154394D01*
X80799920Y-95245606D01*
X80874394Y-95320080D01*
X80965606Y-95372741D01*
X81067339Y-95400000D01*
X81073553Y-95400000D01*
X80394076Y-96079474D01*
X80438650Y-96111859D01*
X80620968Y-96204755D01*
X80815582Y-96267990D01*
X81017683Y-96300000D01*
X81222317Y-96300000D01*
X81424417Y-96267990D01*
X81619031Y-96204755D01*
X81801349Y-96111859D01*
X81845921Y-96079474D01*
X81166447Y-95400000D01*
X81172661Y-95400000D01*
X81274394Y-95372741D01*
X81365606Y-95320080D01*
X81440080Y-95245606D01*
X81492741Y-95154394D01*
X81520000Y-95052661D01*
X81520000Y-95046447D01*
X82199474Y-95725921D01*
X82231859Y-95681349D01*
X82324755Y-95499031D01*
X82387990Y-95304417D01*
X82420000Y-95102317D01*
X82420000Y-94897682D01*
X82387989Y-94695581D01*
X82387988Y-94695574D01*
X82377345Y-94662817D01*
X82375350Y-94592976D01*
X82411431Y-94533143D01*
X82474132Y-94502316D01*
X82495276Y-94500500D01*
X89879903Y-94500500D01*
X89946942Y-94520185D01*
X89967584Y-94536819D01*
X89985922Y-94555157D01*
X90019407Y-94616480D01*
X90016173Y-94681155D01*
X90011522Y-94695468D01*
X89979500Y-94897648D01*
X89979500Y-95102351D01*
X90011522Y-95304534D01*
X90074781Y-95499223D01*
X90138691Y-95624653D01*
X90167585Y-95681359D01*
X90167715Y-95681613D01*
X90288028Y-95847213D01*
X90432786Y-95991971D01*
X90553661Y-96079790D01*
X90598390Y-96112287D01*
X90680286Y-96154015D01*
X90780776Y-96205218D01*
X90780778Y-96205218D01*
X90780781Y-96205220D01*
X90883868Y-96238715D01*
X90975465Y-96268477D01*
X91076557Y-96284488D01*
X91177648Y-96300500D01*
X91177649Y-96300500D01*
X91382351Y-96300500D01*
X91382352Y-96300500D01*
X91584534Y-96268477D01*
X91779219Y-96205220D01*
X91879714Y-96154014D01*
X91936009Y-96140500D01*
X92813270Y-96140500D01*
X92880309Y-96160185D01*
X92917191Y-96197866D01*
X92917349Y-96197752D01*
X92918127Y-96198823D01*
X92919000Y-96199715D01*
X92920210Y-96201690D01*
X92920213Y-96201694D01*
X93037019Y-96362464D01*
X93177536Y-96502981D01*
X93338306Y-96619787D01*
X93425149Y-96664035D01*
X93515367Y-96710005D01*
X93515370Y-96710006D01*
X93609866Y-96740709D01*
X93704364Y-96771413D01*
X93900639Y-96802500D01*
X93900640Y-96802500D01*
X94099360Y-96802500D01*
X94099361Y-96802500D01*
X94295636Y-96771413D01*
X94484632Y-96710005D01*
X94661694Y-96619787D01*
X94822464Y-96502981D01*
X94962981Y-96362464D01*
X95079787Y-96201694D01*
X95165015Y-96034424D01*
X95212990Y-95983629D01*
X95280811Y-95966834D01*
X95346946Y-95989371D01*
X95390397Y-96044087D01*
X95399500Y-96090720D01*
X95399500Y-102713330D01*
X95399499Y-102713348D01*
X95399499Y-102879054D01*
X95399498Y-102879054D01*
X95440423Y-103031785D01*
X95460343Y-103066287D01*
X95460342Y-103066287D01*
X95460343Y-103066288D01*
X95519475Y-103168709D01*
X95519481Y-103168717D01*
X95638349Y-103287585D01*
X95638355Y-103287590D01*
X100236237Y-107885473D01*
X100269722Y-107946796D01*
X100269160Y-107999523D01*
X100269349Y-107999553D01*
X100269146Y-108000832D01*
X100269133Y-108002088D01*
X100268587Y-108004361D01*
X100237500Y-108200639D01*
X100237500Y-108399360D01*
X100268586Y-108595636D01*
X100269131Y-108597903D01*
X100269086Y-108598790D01*
X100269349Y-108600448D01*
X100269000Y-108600503D01*
X100265638Y-108667685D01*
X100236237Y-108714526D01*
X96131286Y-112819478D01*
X96019481Y-112931282D01*
X96019475Y-112931290D01*
X95979356Y-113000780D01*
X95979356Y-113000781D01*
X95940423Y-113068215D01*
X95899499Y-113220943D01*
X95899499Y-113220945D01*
X95899499Y-113389046D01*
X95899500Y-113389059D01*
X95899500Y-119199902D01*
X95879815Y-119266941D01*
X95863181Y-119287583D01*
X95632554Y-119518209D01*
X95606873Y-119537915D01*
X95465602Y-119619477D01*
X95465597Y-119619481D01*
X95221898Y-119863181D01*
X95160575Y-119896666D01*
X95134217Y-119899500D01*
X94318117Y-119899500D01*
X94251078Y-119879815D01*
X94205323Y-119827011D01*
X94195379Y-119757853D01*
X94224404Y-119694297D01*
X94279799Y-119657569D01*
X94364629Y-119630006D01*
X94364632Y-119630005D01*
X94400245Y-119611859D01*
X94541694Y-119539787D01*
X94702464Y-119422981D01*
X94842981Y-119282464D01*
X94959787Y-119121694D01*
X95050005Y-118944632D01*
X95111413Y-118755636D01*
X95142500Y-118559361D01*
X95142500Y-118360639D01*
X95111413Y-118164364D01*
X95050005Y-117975368D01*
X95050005Y-117975367D01*
X95001318Y-117879815D01*
X94959787Y-117798306D01*
X94842981Y-117637536D01*
X94702464Y-117497019D01*
X94541694Y-117380213D01*
X94385218Y-117300484D01*
X94334423Y-117252510D01*
X94317628Y-117184689D01*
X94340165Y-117118554D01*
X94385218Y-117079515D01*
X94541694Y-116999787D01*
X94702464Y-116882981D01*
X94842981Y-116742464D01*
X94959787Y-116581694D01*
X95050005Y-116404632D01*
X95111413Y-116215636D01*
X95142500Y-116019361D01*
X95142500Y-115820639D01*
X95111413Y-115624364D01*
X95050005Y-115435368D01*
X95050005Y-115435367D01*
X95002506Y-115342147D01*
X94959787Y-115258306D01*
X94842981Y-115097536D01*
X94702464Y-114957019D01*
X94541694Y-114840213D01*
X94385218Y-114760484D01*
X94334423Y-114712510D01*
X94317628Y-114644689D01*
X94340165Y-114578554D01*
X94385218Y-114539515D01*
X94541694Y-114459787D01*
X94702464Y-114342981D01*
X94842981Y-114202464D01*
X94959787Y-114041694D01*
X95050005Y-113864632D01*
X95111413Y-113675636D01*
X95142500Y-113479361D01*
X95142500Y-113280639D01*
X95111413Y-113084364D01*
X95071973Y-112962978D01*
X95050006Y-112895370D01*
X95050005Y-112895367D01*
X94959786Y-112718305D01*
X94912180Y-112652781D01*
X94842981Y-112557536D01*
X94702464Y-112417019D01*
X94541694Y-112300213D01*
X94385218Y-112220484D01*
X94334423Y-112172510D01*
X94317628Y-112104689D01*
X94340165Y-112038554D01*
X94385218Y-111999515D01*
X94541694Y-111919787D01*
X94702464Y-111802981D01*
X94842981Y-111662464D01*
X94959787Y-111501694D01*
X95050005Y-111324632D01*
X95111413Y-111135636D01*
X95142500Y-110939361D01*
X95142500Y-110740639D01*
X95111413Y-110544364D01*
X95080709Y-110449866D01*
X95050006Y-110355370D01*
X95050005Y-110355367D01*
X94987041Y-110231795D01*
X94959787Y-110178306D01*
X94842981Y-110017536D01*
X94702464Y-109877019D01*
X94541694Y-109760213D01*
X94385218Y-109680484D01*
X94334423Y-109632510D01*
X94317628Y-109564689D01*
X94340165Y-109498554D01*
X94385218Y-109459515D01*
X94541694Y-109379787D01*
X94702464Y-109262981D01*
X94842981Y-109122464D01*
X94959787Y-108961694D01*
X95050005Y-108784632D01*
X95111413Y-108595636D01*
X95142500Y-108399361D01*
X95142500Y-108200639D01*
X95111413Y-108004364D01*
X95050005Y-107815368D01*
X95050005Y-107815367D01*
X94959786Y-107638305D01*
X94938646Y-107609208D01*
X94842981Y-107477536D01*
X94702464Y-107337019D01*
X94541694Y-107220213D01*
X94385218Y-107140484D01*
X94334423Y-107092510D01*
X94317628Y-107024689D01*
X94340165Y-106958554D01*
X94385218Y-106919515D01*
X94541694Y-106839787D01*
X94702464Y-106722981D01*
X94842981Y-106582464D01*
X94959787Y-106421694D01*
X95050005Y-106244632D01*
X95111413Y-106055636D01*
X95142500Y-105859361D01*
X95142500Y-105660639D01*
X95111413Y-105464364D01*
X95050005Y-105275368D01*
X95050005Y-105275367D01*
X94959786Y-105098305D01*
X94932888Y-105061283D01*
X94842981Y-104937536D01*
X94702464Y-104797019D01*
X94541694Y-104680213D01*
X94385218Y-104600484D01*
X94334423Y-104552510D01*
X94317628Y-104484689D01*
X94340165Y-104418554D01*
X94385218Y-104379515D01*
X94541694Y-104299787D01*
X94702464Y-104182981D01*
X94842981Y-104042464D01*
X94959787Y-103881694D01*
X95050005Y-103704632D01*
X95111413Y-103515636D01*
X95142500Y-103319361D01*
X95142500Y-103120639D01*
X95111413Y-102924364D01*
X95080709Y-102829866D01*
X95050006Y-102735370D01*
X95050005Y-102735367D01*
X94991640Y-102620821D01*
X94959787Y-102558306D01*
X94842981Y-102397536D01*
X94702464Y-102257019D01*
X94578310Y-102166816D01*
X94535646Y-102111487D01*
X94529667Y-102041874D01*
X94562273Y-101980079D01*
X94623112Y-101945721D01*
X94651197Y-101942499D01*
X94689871Y-101942499D01*
X94689872Y-101942499D01*
X94749483Y-101936091D01*
X94884331Y-101885796D01*
X94999546Y-101799546D01*
X95085796Y-101684331D01*
X95136091Y-101549483D01*
X95142500Y-101489873D01*
X95142499Y-99870128D01*
X95136091Y-99810517D01*
X95125675Y-99782591D01*
X95085797Y-99675671D01*
X95085793Y-99675664D01*
X94999547Y-99560455D01*
X94999544Y-99560452D01*
X94884335Y-99474206D01*
X94884328Y-99474202D01*
X94749482Y-99423908D01*
X94749483Y-99423908D01*
X94689883Y-99417501D01*
X94689881Y-99417500D01*
X94689873Y-99417500D01*
X94689864Y-99417500D01*
X93070129Y-99417500D01*
X93070123Y-99417501D01*
X93010516Y-99423908D01*
X92875671Y-99474202D01*
X92875664Y-99474206D01*
X92760455Y-99560452D01*
X92760452Y-99560455D01*
X92674206Y-99675664D01*
X92669953Y-99683454D01*
X92667618Y-99682179D01*
X92634023Y-99727048D01*
X92568556Y-99751458D01*
X92500285Y-99736599D01*
X92459405Y-99700658D01*
X92351971Y-99552787D01*
X92351967Y-99552782D01*
X92207213Y-99408028D01*
X92041613Y-99287715D01*
X92041612Y-99287714D01*
X92041610Y-99287713D01*
X91984653Y-99258691D01*
X91859223Y-99194781D01*
X91664534Y-99131522D01*
X91489995Y-99103878D01*
X91462352Y-99099500D01*
X91257648Y-99099500D01*
X91233329Y-99103351D01*
X91055465Y-99131522D01*
X90860776Y-99194781D01*
X90678386Y-99287715D01*
X90512786Y-99408028D01*
X90368028Y-99552786D01*
X90247715Y-99718386D01*
X90154781Y-99900776D01*
X90091522Y-100095465D01*
X90059500Y-100297648D01*
X90059500Y-100502351D01*
X90091522Y-100704534D01*
X90154782Y-100899226D01*
X90164963Y-100919206D01*
X90177859Y-100987875D01*
X90151582Y-101052616D01*
X90094475Y-101092872D01*
X90054478Y-101099500D01*
X82505522Y-101099500D01*
X82438483Y-101079815D01*
X82392728Y-101027011D01*
X82382784Y-100957853D01*
X82395037Y-100919206D01*
X82405217Y-100899226D01*
X82405217Y-100899222D01*
X82405220Y-100899219D01*
X82468477Y-100704534D01*
X82500500Y-100502352D01*
X82500500Y-100297648D01*
X82468477Y-100095465D01*
X82405218Y-99900776D01*
X82359228Y-99810517D01*
X82312287Y-99718390D01*
X82286905Y-99683454D01*
X82191971Y-99552786D01*
X82047213Y-99408028D01*
X81881613Y-99287715D01*
X81881612Y-99287714D01*
X81881610Y-99287713D01*
X81824653Y-99258691D01*
X81699223Y-99194781D01*
X81504534Y-99131522D01*
X81329995Y-99103878D01*
X81302352Y-99099500D01*
X81097648Y-99099500D01*
X81073329Y-99103351D01*
X80895465Y-99131522D01*
X80700776Y-99194781D01*
X80518386Y-99287715D01*
X80352786Y-99408028D01*
X80208028Y-99552786D01*
X80087715Y-99718385D01*
X80080883Y-99731795D01*
X80032909Y-99782591D01*
X79970398Y-99799500D01*
X74974499Y-99799500D01*
X74907460Y-99779815D01*
X74861705Y-99727011D01*
X74850499Y-99675500D01*
X74850499Y-99522129D01*
X74850498Y-99522123D01*
X74850497Y-99522116D01*
X74844091Y-99462517D01*
X74838895Y-99448587D01*
X74793797Y-99327671D01*
X74793793Y-99327664D01*
X74707547Y-99212455D01*
X74707544Y-99212452D01*
X74592335Y-99126206D01*
X74592328Y-99126202D01*
X74457482Y-99075908D01*
X74457483Y-99075908D01*
X74397883Y-99069501D01*
X74397881Y-99069500D01*
X74397873Y-99069500D01*
X74397864Y-99069500D01*
X72602129Y-99069500D01*
X72602123Y-99069501D01*
X72542516Y-99075908D01*
X72407671Y-99126202D01*
X72407664Y-99126206D01*
X72292455Y-99212452D01*
X72292452Y-99212455D01*
X72206206Y-99327664D01*
X72206202Y-99327671D01*
X72155908Y-99462517D01*
X72150804Y-99509994D01*
X72149501Y-99522123D01*
X72149500Y-99522135D01*
X72149500Y-101317870D01*
X72149501Y-101317876D01*
X72155908Y-101377483D01*
X72206202Y-101512328D01*
X72206206Y-101512335D01*
X72292452Y-101627544D01*
X72292455Y-101627547D01*
X72407664Y-101713793D01*
X72407671Y-101713797D01*
X72539082Y-101762810D01*
X72595016Y-101804681D01*
X72619433Y-101870145D01*
X72604582Y-101938418D01*
X72583431Y-101966673D01*
X72469889Y-102080215D01*
X72344951Y-102252179D01*
X72248444Y-102441585D01*
X72182753Y-102643760D01*
X72149500Y-102853713D01*
X72149500Y-103066286D01*
X72177779Y-103244836D01*
X72182754Y-103276243D01*
X72216803Y-103381036D01*
X72248444Y-103478414D01*
X72344951Y-103667820D01*
X72469890Y-103839786D01*
X72620213Y-103990109D01*
X72792182Y-104115050D01*
X72800946Y-104119516D01*
X72851742Y-104167491D01*
X72868536Y-104235312D01*
X72845998Y-104301447D01*
X72800946Y-104340484D01*
X72792182Y-104344949D01*
X72620213Y-104469890D01*
X72469890Y-104620213D01*
X72344951Y-104792179D01*
X72248444Y-104981585D01*
X72182753Y-105183760D01*
X72161924Y-105315270D01*
X72149500Y-105393713D01*
X72149500Y-105606287D01*
X72155803Y-105646082D01*
X72180057Y-105799219D01*
X72182754Y-105816243D01*
X72248053Y-106017213D01*
X72248444Y-106018414D01*
X72344951Y-106207820D01*
X72469890Y-106379786D01*
X72620213Y-106530109D01*
X72792182Y-106655050D01*
X72800946Y-106659516D01*
X72851742Y-106707491D01*
X72868536Y-106775312D01*
X72845998Y-106841447D01*
X72800946Y-106880484D01*
X72792182Y-106884949D01*
X72620213Y-107009890D01*
X72469890Y-107160213D01*
X72344951Y-107332179D01*
X72248444Y-107521585D01*
X72182753Y-107723760D01*
X72154840Y-107899999D01*
X72149500Y-107933713D01*
X72149500Y-108146287D01*
X72182754Y-108356243D01*
X72236022Y-108520185D01*
X72248444Y-108558414D01*
X72344951Y-108747820D01*
X72469890Y-108919786D01*
X72620213Y-109070109D01*
X72792182Y-109195050D01*
X72800946Y-109199516D01*
X72851742Y-109247491D01*
X72868536Y-109315312D01*
X72845998Y-109381447D01*
X72800946Y-109420484D01*
X72792182Y-109424949D01*
X72620213Y-109549890D01*
X72469890Y-109700213D01*
X72344951Y-109872179D01*
X72248444Y-110061585D01*
X72182753Y-110263760D01*
X72168244Y-110355367D01*
X72149500Y-110473713D01*
X72149500Y-110686287D01*
X72154132Y-110715534D01*
X72182753Y-110896239D01*
X72248444Y-111098414D01*
X72344951Y-111287820D01*
X72469890Y-111459786D01*
X72620213Y-111610109D01*
X72792182Y-111735050D01*
X72800946Y-111739516D01*
X72851742Y-111787491D01*
X72868536Y-111855312D01*
X72845998Y-111921447D01*
X72800946Y-111960484D01*
X72792182Y-111964949D01*
X72620213Y-112089890D01*
X72469890Y-112240213D01*
X72344951Y-112412179D01*
X72248444Y-112601585D01*
X72182753Y-112803760D01*
X72160479Y-112944394D01*
X72149500Y-113013713D01*
X72149500Y-113226287D01*
X72155911Y-113266765D01*
X72175280Y-113389059D01*
X72182754Y-113436243D01*
X72236726Y-113602352D01*
X72248444Y-113638414D01*
X72344951Y-113827820D01*
X72469890Y-113999786D01*
X72620213Y-114150109D01*
X72792182Y-114275050D01*
X72800946Y-114279516D01*
X72851742Y-114327491D01*
X72868536Y-114395312D01*
X72845998Y-114461447D01*
X72800946Y-114500484D01*
X72792182Y-114504949D01*
X72620213Y-114629890D01*
X72469890Y-114780213D01*
X72344951Y-114952179D01*
X72248444Y-115141585D01*
X72182753Y-115343760D01*
X72158725Y-115495466D01*
X72149500Y-115553713D01*
X72149500Y-115766287D01*
X72153351Y-115790602D01*
X72171050Y-115902351D01*
X72182754Y-115976243D01*
X72229732Y-116120827D01*
X72248444Y-116178414D01*
X72344951Y-116367820D01*
X72469890Y-116539786D01*
X72620213Y-116690109D01*
X72792182Y-116815050D01*
X72800946Y-116819516D01*
X72851742Y-116867491D01*
X72868536Y-116935312D01*
X72845998Y-117001447D01*
X72800946Y-117040484D01*
X72792182Y-117044949D01*
X72620213Y-117169890D01*
X72469890Y-117320213D01*
X72344951Y-117492179D01*
X72248444Y-117681585D01*
X72182753Y-117883760D01*
X72149500Y-118093713D01*
X72149500Y-118306286D01*
X72171840Y-118447339D01*
X72182754Y-118516243D01*
X72227642Y-118654394D01*
X72248444Y-118718414D01*
X72344951Y-118907820D01*
X72469890Y-119079786D01*
X72620213Y-119230109D01*
X72792179Y-119355048D01*
X72792181Y-119355049D01*
X72792184Y-119355051D01*
X72981588Y-119451557D01*
X73183757Y-119517246D01*
X73393713Y-119550500D01*
X73393714Y-119550500D01*
X73606286Y-119550500D01*
X73606287Y-119550500D01*
X73816243Y-119517246D01*
X74018412Y-119451557D01*
X74207816Y-119355051D01*
X74229789Y-119339086D01*
X74379786Y-119230109D01*
X74379788Y-119230106D01*
X74379792Y-119230104D01*
X74530104Y-119079792D01*
X74530106Y-119079788D01*
X74530109Y-119079786D01*
X74655048Y-118907820D01*
X74655047Y-118907820D01*
X74655051Y-118907816D01*
X74751557Y-118718412D01*
X74817246Y-118516243D01*
X74850500Y-118306287D01*
X74850500Y-118093713D01*
X74850500Y-118093712D01*
X74850118Y-118088862D01*
X74851191Y-118088777D01*
X74859482Y-118024608D01*
X74904476Y-117971155D01*
X74971227Y-117950513D01*
X74973002Y-117950500D01*
X79640971Y-117950500D01*
X79708010Y-117970185D01*
X79753765Y-118022989D01*
X79763709Y-118092147D01*
X79758902Y-118112819D01*
X79732009Y-118195582D01*
X79700000Y-118397682D01*
X79700000Y-118602317D01*
X79732009Y-118804417D01*
X79795244Y-118999031D01*
X79888141Y-119181350D01*
X79888147Y-119181359D01*
X79920523Y-119225921D01*
X79920524Y-119225922D01*
X80600000Y-118546446D01*
X80600000Y-118552661D01*
X80627259Y-118654394D01*
X80679920Y-118745606D01*
X80754394Y-118820080D01*
X80845606Y-118872741D01*
X80947339Y-118900000D01*
X80953553Y-118900000D01*
X80274076Y-119579474D01*
X80318650Y-119611859D01*
X80500968Y-119704755D01*
X80695582Y-119767990D01*
X80897683Y-119800000D01*
X81102317Y-119800000D01*
X81304417Y-119767990D01*
X81499031Y-119704755D01*
X81681349Y-119611859D01*
X81725921Y-119579474D01*
X81046447Y-118900000D01*
X81052661Y-118900000D01*
X81154394Y-118872741D01*
X81245606Y-118820080D01*
X81320080Y-118745606D01*
X81372741Y-118654394D01*
X81400000Y-118552661D01*
X81400000Y-118546447D01*
X82079474Y-119225921D01*
X82111859Y-119181349D01*
X82204755Y-118999031D01*
X82267990Y-118804417D01*
X82300000Y-118602317D01*
X82300000Y-118397682D01*
X82267990Y-118195582D01*
X82241098Y-118112819D01*
X82239103Y-118042978D01*
X82275183Y-117983145D01*
X82337883Y-117952316D01*
X82359029Y-117950500D01*
X89709903Y-117950500D01*
X89776942Y-117970185D01*
X89797584Y-117986819D01*
X89865922Y-118055157D01*
X89899407Y-118116480D01*
X89896173Y-118181155D01*
X89891522Y-118195468D01*
X89859500Y-118397648D01*
X89859500Y-118602351D01*
X89891522Y-118804534D01*
X89954781Y-118999223D01*
X89995831Y-119079786D01*
X90047585Y-119181359D01*
X90047715Y-119181613D01*
X90168028Y-119347213D01*
X90312786Y-119491971D01*
X90432651Y-119579056D01*
X90478390Y-119612287D01*
X90565042Y-119656438D01*
X90581874Y-119665015D01*
X90632670Y-119712990D01*
X90649465Y-119780811D01*
X90626927Y-119846946D01*
X90572212Y-119890397D01*
X90525579Y-119899500D01*
X86086669Y-119899500D01*
X86086653Y-119899499D01*
X86079057Y-119899499D01*
X85920943Y-119899499D01*
X85768215Y-119940423D01*
X85724609Y-119965599D01*
X85631287Y-120019477D01*
X85631282Y-120019481D01*
X84559481Y-121091282D01*
X84559479Y-121091285D01*
X84509361Y-121178094D01*
X84509359Y-121178096D01*
X84480425Y-121228209D01*
X84480424Y-121228210D01*
X84480423Y-121228215D01*
X84439499Y-121380943D01*
X84439499Y-121380945D01*
X84439499Y-121549046D01*
X84439500Y-121549059D01*
X84439500Y-125714281D01*
X84419815Y-125781320D01*
X84371795Y-125824765D01*
X84332185Y-125844947D01*
X84332184Y-125844948D01*
X84160213Y-125969890D01*
X84009890Y-126120213D01*
X83884949Y-126292182D01*
X83880484Y-126300946D01*
X83832509Y-126351742D01*
X83764688Y-126368536D01*
X83698553Y-126345998D01*
X83659516Y-126300946D01*
X83655050Y-126292182D01*
X83530109Y-126120213D01*
X83379786Y-125969890D01*
X83207820Y-125844951D01*
X83018414Y-125748444D01*
X83018413Y-125748443D01*
X83018412Y-125748443D01*
X82816243Y-125682754D01*
X82816241Y-125682753D01*
X82816240Y-125682753D01*
X82654957Y-125657208D01*
X82606287Y-125649500D01*
X82393713Y-125649500D01*
X82345042Y-125657208D01*
X82183760Y-125682753D01*
X82183757Y-125682754D01*
X82027612Y-125733489D01*
X81981585Y-125748444D01*
X81792179Y-125844951D01*
X81620215Y-125969889D01*
X81506285Y-126083819D01*
X81444962Y-126117303D01*
X81375270Y-126112319D01*
X81319337Y-126070447D01*
X81302422Y-126039470D01*
X81253354Y-125907913D01*
X81253350Y-125907906D01*
X81167190Y-125792812D01*
X81167187Y-125792809D01*
X81052093Y-125706649D01*
X81052086Y-125706645D01*
X80917379Y-125656403D01*
X80917372Y-125656401D01*
X80857844Y-125650000D01*
X80210000Y-125650000D01*
X80210000Y-126566988D01*
X80152993Y-126534075D01*
X80025826Y-126500000D01*
X79894174Y-126500000D01*
X79767007Y-126534075D01*
X79710000Y-126566988D01*
X79710000Y-125650000D01*
X79062155Y-125650000D01*
X79002627Y-125656401D01*
X79002620Y-125656403D01*
X78867913Y-125706645D01*
X78867906Y-125706649D01*
X78752812Y-125792809D01*
X78752809Y-125792812D01*
X78666649Y-125907906D01*
X78666645Y-125907913D01*
X78616403Y-126042620D01*
X78616401Y-126042627D01*
X78610000Y-126102155D01*
X78610000Y-126750000D01*
X79526988Y-126750000D01*
X79494075Y-126807007D01*
X79460000Y-126934174D01*
X79460000Y-127065826D01*
X79494075Y-127192993D01*
X79526988Y-127250000D01*
X78610000Y-127250000D01*
X78610000Y-127897844D01*
X78616401Y-127957372D01*
X78616403Y-127957379D01*
X78666645Y-128092086D01*
X78666649Y-128092093D01*
X78752809Y-128207187D01*
X78752812Y-128207190D01*
X78867906Y-128293350D01*
X78867913Y-128293354D01*
X79002620Y-128343596D01*
X79002627Y-128343598D01*
X79062155Y-128349999D01*
X79062172Y-128350000D01*
X79710000Y-128350000D01*
X79710000Y-127433012D01*
X79767007Y-127465925D01*
X79894174Y-127500000D01*
X80025826Y-127500000D01*
X80152993Y-127465925D01*
X80210000Y-127433012D01*
X80210000Y-128350000D01*
X80857828Y-128350000D01*
X80857844Y-128349999D01*
X80917372Y-128343598D01*
X80917379Y-128343596D01*
X81052086Y-128293354D01*
X81052093Y-128293350D01*
X81167187Y-128207190D01*
X81167190Y-128207187D01*
X81253350Y-128092093D01*
X81253354Y-128092086D01*
X81302422Y-127960529D01*
X81344293Y-127904595D01*
X81409757Y-127880178D01*
X81478030Y-127895030D01*
X81506285Y-127916181D01*
X81620213Y-128030109D01*
X81792179Y-128155048D01*
X81792181Y-128155049D01*
X81792184Y-128155051D01*
X81981588Y-128251557D01*
X82183757Y-128317246D01*
X82393713Y-128350500D01*
X82393714Y-128350500D01*
X82606286Y-128350500D01*
X82606287Y-128350500D01*
X82701728Y-128335383D01*
X82771021Y-128344337D01*
X82808807Y-128370175D01*
X84726452Y-130287819D01*
X84759937Y-130349142D01*
X84754953Y-130418834D01*
X84713081Y-130474767D01*
X84647617Y-130499184D01*
X84638771Y-130499500D01*
X70624500Y-130499500D01*
X70557461Y-130479815D01*
X70511706Y-130427011D01*
X70500500Y-130375500D01*
X70500500Y-51624500D01*
X70520185Y-51557461D01*
X70572989Y-51511706D01*
X70624500Y-51500500D01*
X113876000Y-51500500D01*
X113943039Y-51520185D01*
G37*
%TD.AperFunction*%
%TA.AperFunction,Conductor*%
G36*
X102967203Y-105749017D02*
G01*
X102973681Y-105755049D01*
X103213181Y-105994549D01*
X103246666Y-106055872D01*
X103249500Y-106082230D01*
X103249500Y-127637770D01*
X103229815Y-127704809D01*
X103213181Y-127725451D01*
X101725451Y-129213181D01*
X101664128Y-129246666D01*
X101637770Y-129249500D01*
X98417649Y-129249500D01*
X98350610Y-129229815D01*
X98304855Y-129177011D01*
X98294911Y-129107853D01*
X98296031Y-129101310D01*
X98300500Y-129078841D01*
X98300500Y-128921155D01*
X98300499Y-128921153D01*
X98293645Y-128886697D01*
X98269737Y-128766503D01*
X98219169Y-128644419D01*
X98209397Y-128620827D01*
X98209390Y-128620814D01*
X98121789Y-128489711D01*
X98121786Y-128489707D01*
X98118627Y-128486548D01*
X98085142Y-128425225D01*
X98090126Y-128355533D01*
X98131998Y-128299600D01*
X98167987Y-128280937D01*
X98258412Y-128251557D01*
X98447816Y-128155051D01*
X98534471Y-128092093D01*
X98619786Y-128030109D01*
X98619788Y-128030106D01*
X98619792Y-128030104D01*
X98770104Y-127879792D01*
X98770106Y-127879788D01*
X98770109Y-127879786D01*
X98828661Y-127799193D01*
X98895051Y-127707816D01*
X98896583Y-127704809D01*
X98915235Y-127668205D01*
X98963209Y-127617409D01*
X99025719Y-127600500D01*
X100913331Y-127600500D01*
X100913347Y-127600501D01*
X100920943Y-127600501D01*
X101079054Y-127600501D01*
X101079057Y-127600501D01*
X101231785Y-127559577D01*
X101297590Y-127521584D01*
X101368716Y-127480520D01*
X101480520Y-127368716D01*
X101480521Y-127368714D01*
X101980520Y-126868716D01*
X102059577Y-126731784D01*
X102100501Y-126579057D01*
X102100501Y-126420942D01*
X102100501Y-126413347D01*
X102100500Y-126413329D01*
X102100500Y-124589060D01*
X102100501Y-124589047D01*
X102100501Y-124420944D01*
X102100501Y-124420943D01*
X102059577Y-124268216D01*
X102059573Y-124268209D01*
X101980524Y-124131290D01*
X101980518Y-124131282D01*
X101834573Y-123985337D01*
X101801088Y-123924014D01*
X101800637Y-123921847D01*
X101787426Y-123855431D01*
X101769737Y-123766503D01*
X101765573Y-123756450D01*
X101709397Y-123620827D01*
X101709390Y-123620814D01*
X101621789Y-123489711D01*
X101621786Y-123489707D01*
X101510292Y-123378213D01*
X101510288Y-123378210D01*
X101379185Y-123290609D01*
X101379179Y-123290606D01*
X101361589Y-123283320D01*
X101307186Y-123239478D01*
X101285122Y-123173184D01*
X101287425Y-123144571D01*
X101300500Y-123078842D01*
X101300500Y-122921158D01*
X101300500Y-122921155D01*
X101300499Y-122921153D01*
X101269738Y-122766510D01*
X101269737Y-122766503D01*
X101216021Y-122636819D01*
X101209397Y-122620827D01*
X101209390Y-122620814D01*
X101121789Y-122489711D01*
X101121786Y-122489707D01*
X101010292Y-122378213D01*
X101010288Y-122378210D01*
X100879185Y-122290609D01*
X100879172Y-122290602D01*
X100733501Y-122230264D01*
X100733491Y-122230261D01*
X100578151Y-122199362D01*
X100516241Y-122166977D01*
X100514662Y-122165426D01*
X99987590Y-121638355D01*
X99987588Y-121638352D01*
X99868717Y-121519481D01*
X99868716Y-121519480D01*
X99781904Y-121469360D01*
X99781904Y-121469359D01*
X99781900Y-121469358D01*
X99731785Y-121440423D01*
X99579057Y-121399499D01*
X99420943Y-121399499D01*
X99413347Y-121399499D01*
X99413331Y-121399500D01*
X98749097Y-121399500D01*
X98682058Y-121379815D01*
X98636303Y-121327011D01*
X98626359Y-121257853D01*
X98655384Y-121194297D01*
X98661416Y-121187819D01*
X98790755Y-121058479D01*
X99358506Y-120490727D01*
X99358511Y-120490724D01*
X99368714Y-120480520D01*
X99368716Y-120480520D01*
X99480520Y-120368716D01*
X99559577Y-120231784D01*
X99594210Y-120102531D01*
X99600500Y-120079058D01*
X99600500Y-119920943D01*
X99600500Y-119920942D01*
X99600500Y-116459765D01*
X99620185Y-116392726D01*
X99621398Y-116390874D01*
X99709390Y-116259185D01*
X99709390Y-116259184D01*
X99709394Y-116259179D01*
X99769737Y-116113497D01*
X99797039Y-115976243D01*
X99800638Y-115958150D01*
X99833023Y-115896239D01*
X99834521Y-115894713D01*
X100029545Y-115699689D01*
X100090865Y-115666206D01*
X100160556Y-115671190D01*
X100216490Y-115713061D01*
X100240907Y-115778526D01*
X100239697Y-115806765D01*
X100237500Y-115820639D01*
X100237500Y-116019360D01*
X100268587Y-116215637D01*
X100329993Y-116404629D01*
X100329994Y-116404632D01*
X100403473Y-116548840D01*
X100420213Y-116581694D01*
X100537019Y-116742464D01*
X100677536Y-116882981D01*
X100838306Y-116999787D01*
X100995332Y-117079796D01*
X101046127Y-117127769D01*
X101062922Y-117195590D01*
X101040385Y-117261725D01*
X100995332Y-117300764D01*
X100838566Y-117380641D01*
X100801283Y-117407729D01*
X100801282Y-117407730D01*
X101447154Y-118053600D01*
X101446496Y-118053600D01*
X101343135Y-118081295D01*
X101250464Y-118134799D01*
X101174799Y-118210464D01*
X101121295Y-118303135D01*
X101093600Y-118406496D01*
X101093600Y-118407152D01*
X100447730Y-117761282D01*
X100447729Y-117761283D01*
X100420643Y-117798564D01*
X100330457Y-117975562D01*
X100269075Y-118164476D01*
X100269075Y-118164479D01*
X100238000Y-118360678D01*
X100238000Y-118559321D01*
X100269075Y-118755520D01*
X100269075Y-118755523D01*
X100330457Y-118944437D01*
X100420641Y-119121432D01*
X100447730Y-119158715D01*
X100447731Y-119158716D01*
X101093600Y-118512847D01*
X101093600Y-118513504D01*
X101121295Y-118616865D01*
X101174799Y-118709536D01*
X101250464Y-118785201D01*
X101343135Y-118838705D01*
X101446496Y-118866400D01*
X101447153Y-118866400D01*
X100801283Y-119512268D01*
X100801283Y-119512269D01*
X100838567Y-119539358D01*
X101015562Y-119629542D01*
X101204477Y-119690924D01*
X101400679Y-119722000D01*
X101599321Y-119722000D01*
X101795520Y-119690924D01*
X101795523Y-119690924D01*
X101984437Y-119629542D01*
X102161425Y-119539362D01*
X102198716Y-119512268D01*
X101552848Y-118866400D01*
X101553504Y-118866400D01*
X101656865Y-118838705D01*
X101749536Y-118785201D01*
X101825201Y-118709536D01*
X101878705Y-118616865D01*
X101906400Y-118513504D01*
X101906400Y-118512847D01*
X102552268Y-119158715D01*
X102579362Y-119121425D01*
X102669542Y-118944437D01*
X102730924Y-118755523D01*
X102730924Y-118755520D01*
X102762000Y-118559321D01*
X102762000Y-118360678D01*
X102730924Y-118164479D01*
X102730924Y-118164476D01*
X102669542Y-117975562D01*
X102579358Y-117798567D01*
X102552268Y-117761283D01*
X101906400Y-118407151D01*
X101906400Y-118406496D01*
X101878705Y-118303135D01*
X101825201Y-118210464D01*
X101749536Y-118134799D01*
X101656865Y-118081295D01*
X101553504Y-118053600D01*
X101552847Y-118053600D01*
X102198716Y-117407731D01*
X102198715Y-117407730D01*
X102161432Y-117380641D01*
X102004668Y-117300765D01*
X101953872Y-117252790D01*
X101937077Y-117184969D01*
X101959615Y-117118834D01*
X102004667Y-117079796D01*
X102161694Y-116999787D01*
X102322464Y-116882981D01*
X102462981Y-116742464D01*
X102579787Y-116581694D01*
X102670005Y-116404632D01*
X102731413Y-116215636D01*
X102762500Y-116019361D01*
X102762500Y-115820639D01*
X102731413Y-115624364D01*
X102670005Y-115435368D01*
X102670005Y-115435367D01*
X102622506Y-115342147D01*
X102579787Y-115258306D01*
X102462981Y-115097536D01*
X102322464Y-114957019D01*
X102161694Y-114840213D01*
X102005218Y-114760484D01*
X101954423Y-114712510D01*
X101937628Y-114644689D01*
X101960165Y-114578554D01*
X102005218Y-114539515D01*
X102161694Y-114459787D01*
X102322464Y-114342981D01*
X102462981Y-114202464D01*
X102579787Y-114041694D01*
X102670005Y-113864632D01*
X102731413Y-113675636D01*
X102762500Y-113479361D01*
X102762500Y-113280639D01*
X102731413Y-113084364D01*
X102691973Y-112962978D01*
X102670006Y-112895370D01*
X102670005Y-112895367D01*
X102579786Y-112718305D01*
X102532180Y-112652781D01*
X102462981Y-112557536D01*
X102322464Y-112417019D01*
X102161694Y-112300213D01*
X102005218Y-112220484D01*
X101954423Y-112172510D01*
X101937628Y-112104689D01*
X101960165Y-112038554D01*
X102005218Y-111999515D01*
X102161694Y-111919787D01*
X102322464Y-111802981D01*
X102462981Y-111662464D01*
X102579787Y-111501694D01*
X102670005Y-111324632D01*
X102731413Y-111135636D01*
X102762500Y-110939361D01*
X102762500Y-110740639D01*
X102731413Y-110544364D01*
X102700709Y-110449866D01*
X102670006Y-110355370D01*
X102670005Y-110355367D01*
X102607041Y-110231795D01*
X102579787Y-110178306D01*
X102462981Y-110017536D01*
X102322464Y-109877019D01*
X102161694Y-109760213D01*
X102005218Y-109680484D01*
X101954423Y-109632510D01*
X101937628Y-109564689D01*
X101960165Y-109498554D01*
X102005218Y-109459515D01*
X102161694Y-109379787D01*
X102322464Y-109262981D01*
X102462981Y-109122464D01*
X102579787Y-108961694D01*
X102670005Y-108784632D01*
X102731413Y-108595636D01*
X102762500Y-108399361D01*
X102762500Y-108200639D01*
X102731413Y-108004364D01*
X102670005Y-107815368D01*
X102670005Y-107815367D01*
X102579786Y-107638305D01*
X102558646Y-107609208D01*
X102462981Y-107477536D01*
X102322464Y-107337019D01*
X102161694Y-107220213D01*
X102004667Y-107140203D01*
X101953872Y-107092229D01*
X101937077Y-107024408D01*
X101959614Y-106958273D01*
X102004669Y-106919234D01*
X102161422Y-106839364D01*
X102198715Y-106812268D01*
X101552846Y-106166400D01*
X101553504Y-106166400D01*
X101656865Y-106138705D01*
X101749536Y-106085201D01*
X101825201Y-106009536D01*
X101878705Y-105916865D01*
X101906400Y-105813504D01*
X101906400Y-105812846D01*
X102552268Y-106458715D01*
X102579362Y-106421425D01*
X102669542Y-106244437D01*
X102730924Y-106055523D01*
X102730924Y-106055520D01*
X102762000Y-105859321D01*
X102762000Y-105842730D01*
X102781685Y-105775691D01*
X102834489Y-105729936D01*
X102903647Y-105719992D01*
X102967203Y-105749017D01*
G37*
%TD.AperFunction*%
%TA.AperFunction,Conductor*%
G36*
X79811763Y-107420185D02*
G01*
X79857518Y-107472989D01*
X79867462Y-107542147D01*
X79862655Y-107562817D01*
X79852011Y-107595574D01*
X79852010Y-107595581D01*
X79820000Y-107797682D01*
X79820000Y-108002317D01*
X79852009Y-108204417D01*
X79915244Y-108399031D01*
X80008141Y-108581350D01*
X80008147Y-108581359D01*
X80040523Y-108625921D01*
X80040524Y-108625922D01*
X80720000Y-107946446D01*
X80720000Y-107952661D01*
X80747259Y-108054394D01*
X80799920Y-108145606D01*
X80874394Y-108220080D01*
X80965606Y-108272741D01*
X81067339Y-108300000D01*
X81073553Y-108300000D01*
X80394076Y-108979474D01*
X80438650Y-109011859D01*
X80620968Y-109104755D01*
X80815582Y-109167990D01*
X81017683Y-109200000D01*
X81222317Y-109200000D01*
X81424417Y-109167990D01*
X81619031Y-109104755D01*
X81801349Y-109011859D01*
X81845921Y-108979474D01*
X81166447Y-108300000D01*
X81172661Y-108300000D01*
X81274394Y-108272741D01*
X81365606Y-108220080D01*
X81440080Y-108145606D01*
X81492741Y-108054394D01*
X81520000Y-107952661D01*
X81520000Y-107946447D01*
X82199474Y-108625921D01*
X82231859Y-108581349D01*
X82324755Y-108399031D01*
X82387990Y-108204417D01*
X82420000Y-108002317D01*
X82420000Y-107797682D01*
X82387989Y-107595581D01*
X82387988Y-107595574D01*
X82377345Y-107562817D01*
X82375350Y-107492976D01*
X82411431Y-107433143D01*
X82474132Y-107402316D01*
X82495276Y-107400500D01*
X89879903Y-107400500D01*
X89946942Y-107420185D01*
X89967584Y-107436819D01*
X89985922Y-107455157D01*
X90019407Y-107516480D01*
X90016173Y-107581155D01*
X90011522Y-107595468D01*
X89987743Y-107745606D01*
X89979500Y-107797648D01*
X89979500Y-108002352D01*
X89979819Y-108004364D01*
X90011522Y-108204534D01*
X90074781Y-108399223D01*
X90126385Y-108500500D01*
X90167585Y-108581359D01*
X90167715Y-108581613D01*
X90288028Y-108747213D01*
X90432786Y-108891971D01*
X90553226Y-108979474D01*
X90598390Y-109012287D01*
X90711862Y-109070104D01*
X90780776Y-109105218D01*
X90780778Y-109105218D01*
X90780781Y-109105220D01*
X90833853Y-109122464D01*
X90975465Y-109168477D01*
X91076557Y-109184488D01*
X91177648Y-109200500D01*
X91177649Y-109200500D01*
X91382351Y-109200500D01*
X91382352Y-109200500D01*
X91584534Y-109168477D01*
X91779219Y-109105220D01*
X91961610Y-109012287D01*
X92054590Y-108944732D01*
X92127213Y-108891971D01*
X92127215Y-108891968D01*
X92127219Y-108891966D01*
X92271966Y-108747219D01*
X92271968Y-108747215D01*
X92271971Y-108747213D01*
X92378561Y-108600503D01*
X92392287Y-108581610D01*
X92399117Y-108568204D01*
X92447091Y-108517409D01*
X92509602Y-108500500D01*
X92527993Y-108500500D01*
X92595032Y-108520185D01*
X92640787Y-108572989D01*
X92647005Y-108591026D01*
X92647081Y-108591002D01*
X92648446Y-108595204D01*
X92648568Y-108595557D01*
X92648587Y-108595639D01*
X92709993Y-108784629D01*
X92709994Y-108784632D01*
X92778862Y-108919790D01*
X92800213Y-108961694D01*
X92917019Y-109122464D01*
X93057536Y-109262981D01*
X93218306Y-109379787D01*
X93298178Y-109420484D01*
X93374780Y-109459515D01*
X93425576Y-109507490D01*
X93442371Y-109575311D01*
X93419833Y-109641446D01*
X93374780Y-109680485D01*
X93218305Y-109760213D01*
X93057533Y-109877021D01*
X92917021Y-110017533D01*
X92800213Y-110178305D01*
X92782155Y-110213744D01*
X92775397Y-110227011D01*
X92772959Y-110231795D01*
X92724984Y-110282591D01*
X92662474Y-110299500D01*
X92509602Y-110299500D01*
X92442563Y-110279815D01*
X92399117Y-110231795D01*
X92392287Y-110218390D01*
X92392285Y-110218387D01*
X92392284Y-110218385D01*
X92271971Y-110052786D01*
X92127213Y-109908028D01*
X91961613Y-109787715D01*
X91961612Y-109787714D01*
X91961610Y-109787713D01*
X91904653Y-109758691D01*
X91779223Y-109694781D01*
X91584534Y-109631522D01*
X91409995Y-109603878D01*
X91382352Y-109599500D01*
X91177648Y-109599500D01*
X91153329Y-109603351D01*
X90975465Y-109631522D01*
X90780776Y-109694781D01*
X90598386Y-109787715D01*
X90432786Y-109908028D01*
X90288028Y-110052786D01*
X90167715Y-110218386D01*
X90074781Y-110400776D01*
X90011522Y-110595465D01*
X89979500Y-110797648D01*
X89979500Y-111002351D01*
X90011522Y-111204534D01*
X90074781Y-111399223D01*
X90120630Y-111489204D01*
X90133526Y-111557873D01*
X90107250Y-111622613D01*
X90050144Y-111662871D01*
X90010148Y-111669499D01*
X89970943Y-111669499D01*
X89970939Y-111669499D01*
X89963334Y-111669500D01*
X89963333Y-111669499D01*
X89963331Y-111669500D01*
X82389855Y-111669500D01*
X82322816Y-111649815D01*
X82277061Y-111597011D01*
X82267117Y-111527853D01*
X82279370Y-111489205D01*
X82325218Y-111399223D01*
X82325218Y-111399222D01*
X82325220Y-111399219D01*
X82388477Y-111204534D01*
X82420500Y-111002352D01*
X82420500Y-110797648D01*
X82404498Y-110696617D01*
X82388477Y-110595465D01*
X82325218Y-110400776D01*
X82291503Y-110334607D01*
X82232287Y-110218390D01*
X82203164Y-110178305D01*
X82111971Y-110052786D01*
X81967213Y-109908028D01*
X81801613Y-109787715D01*
X81801612Y-109787714D01*
X81801610Y-109787713D01*
X81744653Y-109758691D01*
X81619223Y-109694781D01*
X81424534Y-109631522D01*
X81249995Y-109603878D01*
X81222352Y-109599500D01*
X81017648Y-109599500D01*
X80993329Y-109603351D01*
X80815465Y-109631522D01*
X80620776Y-109694781D01*
X80438386Y-109787715D01*
X80272786Y-109908028D01*
X80128028Y-110052786D01*
X80007715Y-110218385D01*
X80000883Y-110231795D01*
X79952909Y-110282591D01*
X79890398Y-110299500D01*
X74918951Y-110299500D01*
X74851912Y-110279815D01*
X74806157Y-110227011D01*
X74801020Y-110213819D01*
X74751555Y-110061583D01*
X74673314Y-109908028D01*
X74655051Y-109872184D01*
X74655049Y-109872181D01*
X74655048Y-109872179D01*
X74530109Y-109700213D01*
X74379786Y-109549890D01*
X74207820Y-109424951D01*
X74207115Y-109424591D01*
X74199054Y-109420485D01*
X74148259Y-109372512D01*
X74131463Y-109304692D01*
X74153999Y-109238556D01*
X74199054Y-109199515D01*
X74207816Y-109195051D01*
X74245063Y-109167990D01*
X74379786Y-109070109D01*
X74379788Y-109070106D01*
X74379792Y-109070104D01*
X74530104Y-108919792D01*
X74655051Y-108747816D01*
X74751557Y-108558412D01*
X74817246Y-108356243D01*
X74850500Y-108146287D01*
X74850500Y-107933713D01*
X74817246Y-107723757D01*
X74803506Y-107681473D01*
X74801512Y-107611635D01*
X74833753Y-107555480D01*
X74952417Y-107436817D01*
X75013740Y-107403334D01*
X75040097Y-107400500D01*
X79744724Y-107400500D01*
X79811763Y-107420185D01*
G37*
%TD.AperFunction*%
%TA.AperFunction,Conductor*%
G36*
X103087203Y-82829016D02*
G01*
X103093681Y-82835048D01*
X103213181Y-82954548D01*
X103246666Y-83015871D01*
X103249500Y-83042229D01*
X103249500Y-97817769D01*
X103229815Y-97884808D01*
X103213181Y-97905450D01*
X101731891Y-99386739D01*
X101670568Y-99420224D01*
X101624813Y-99421531D01*
X101599361Y-99417500D01*
X101400639Y-99417500D01*
X101335214Y-99427862D01*
X101204362Y-99448587D01*
X101015370Y-99509993D01*
X101015367Y-99509994D01*
X100838305Y-99600213D01*
X100677533Y-99717021D01*
X100537021Y-99857533D01*
X100420213Y-100018305D01*
X100329994Y-100195367D01*
X100329993Y-100195370D01*
X100268587Y-100384362D01*
X100237500Y-100580639D01*
X100237500Y-100779360D01*
X100268587Y-100975637D01*
X100329993Y-101164629D01*
X100329994Y-101164632D01*
X100408077Y-101317876D01*
X100420213Y-101341694D01*
X100537019Y-101502464D01*
X100677536Y-101642981D01*
X100698384Y-101658128D01*
X100741050Y-101713455D01*
X100749500Y-101758446D01*
X100749500Y-102141553D01*
X100729815Y-102208592D01*
X100698387Y-102241869D01*
X100688126Y-102249324D01*
X100677534Y-102257020D01*
X100537021Y-102397533D01*
X100420213Y-102558305D01*
X100329994Y-102735367D01*
X100329993Y-102735370D01*
X100268587Y-102924362D01*
X100237500Y-103120639D01*
X100237500Y-103319360D01*
X100268587Y-103515637D01*
X100329993Y-103704629D01*
X100329994Y-103704632D01*
X100398863Y-103839792D01*
X100420213Y-103881694D01*
X100537019Y-104042464D01*
X100677536Y-104182981D01*
X100838306Y-104299787D01*
X100995332Y-104379796D01*
X101046127Y-104427769D01*
X101062922Y-104495590D01*
X101040385Y-104561725D01*
X100995332Y-104600764D01*
X100838566Y-104680641D01*
X100801283Y-104707729D01*
X100801282Y-104707730D01*
X101447153Y-105353600D01*
X101446496Y-105353600D01*
X101343135Y-105381295D01*
X101250464Y-105434799D01*
X101174799Y-105510464D01*
X101121295Y-105603135D01*
X101093600Y-105706496D01*
X101093600Y-105707153D01*
X100447730Y-105061282D01*
X100447729Y-105061283D01*
X100420643Y-105098564D01*
X100330457Y-105275562D01*
X100269075Y-105464476D01*
X100269075Y-105464479D01*
X100238000Y-105660678D01*
X100238000Y-105859319D01*
X100240298Y-105873832D01*
X100231341Y-105943125D01*
X100186343Y-105996576D01*
X100119590Y-106017213D01*
X100052277Y-105998486D01*
X100030143Y-105980907D01*
X99413755Y-105364519D01*
X99380270Y-105303196D01*
X99385254Y-105233504D01*
X99427126Y-105177571D01*
X99432545Y-105173736D01*
X99510289Y-105121789D01*
X99621786Y-105010292D01*
X99621789Y-105010289D01*
X99709394Y-104879179D01*
X99769737Y-104733497D01*
X99800500Y-104578842D01*
X99800500Y-104421158D01*
X99800500Y-104421155D01*
X99800499Y-104421153D01*
X99776688Y-104301447D01*
X99769737Y-104266503D01*
X99762256Y-104248443D01*
X99709397Y-104120827D01*
X99709390Y-104120814D01*
X99621398Y-103989125D01*
X99600520Y-103922447D01*
X99600500Y-103920234D01*
X99600500Y-93659765D01*
X99620185Y-93592726D01*
X99621398Y-93590874D01*
X99709390Y-93459185D01*
X99709390Y-93459184D01*
X99709394Y-93459179D01*
X99769737Y-93313497D01*
X99790916Y-93207023D01*
X99800638Y-93158150D01*
X99833023Y-93096239D01*
X99834518Y-93094716D01*
X100149544Y-92779690D01*
X100210865Y-92746207D01*
X100280557Y-92751191D01*
X100336490Y-92793063D01*
X100360907Y-92858527D01*
X100359697Y-92886767D01*
X100357500Y-92900639D01*
X100357500Y-93099361D01*
X100370021Y-93178414D01*
X100388587Y-93295637D01*
X100449993Y-93484629D01*
X100449994Y-93484632D01*
X100517747Y-93617603D01*
X100540213Y-93661694D01*
X100657019Y-93822464D01*
X100797536Y-93962981D01*
X100958306Y-94079787D01*
X101115332Y-94159796D01*
X101166127Y-94207769D01*
X101182922Y-94275590D01*
X101160385Y-94341725D01*
X101115332Y-94380764D01*
X100958566Y-94460641D01*
X100921283Y-94487729D01*
X100921282Y-94487730D01*
X101567154Y-95133600D01*
X101566496Y-95133600D01*
X101463135Y-95161295D01*
X101370464Y-95214799D01*
X101294799Y-95290464D01*
X101241295Y-95383135D01*
X101213600Y-95486496D01*
X101213600Y-95487152D01*
X100567730Y-94841282D01*
X100567729Y-94841283D01*
X100540643Y-94878564D01*
X100450457Y-95055562D01*
X100389075Y-95244476D01*
X100389075Y-95244479D01*
X100358000Y-95440678D01*
X100358000Y-95639321D01*
X100389075Y-95835520D01*
X100389075Y-95835523D01*
X100450457Y-96024437D01*
X100540641Y-96201432D01*
X100567730Y-96238715D01*
X100567731Y-96238716D01*
X101213600Y-95592847D01*
X101213600Y-95593504D01*
X101241295Y-95696865D01*
X101294799Y-95789536D01*
X101370464Y-95865201D01*
X101463135Y-95918705D01*
X101566496Y-95946400D01*
X101567153Y-95946400D01*
X100921283Y-96592268D01*
X100921283Y-96592269D01*
X100958567Y-96619358D01*
X101135562Y-96709542D01*
X101324477Y-96770924D01*
X101520679Y-96802000D01*
X101719321Y-96802000D01*
X101915520Y-96770924D01*
X101915523Y-96770924D01*
X102104437Y-96709542D01*
X102281425Y-96619362D01*
X102318716Y-96592268D01*
X101672848Y-95946400D01*
X101673504Y-95946400D01*
X101776865Y-95918705D01*
X101869536Y-95865201D01*
X101945201Y-95789536D01*
X101998705Y-95696865D01*
X102026400Y-95593504D01*
X102026400Y-95592847D01*
X102672268Y-96238715D01*
X102699362Y-96201425D01*
X102789542Y-96024437D01*
X102850924Y-95835523D01*
X102850924Y-95835520D01*
X102882000Y-95639321D01*
X102882000Y-95440678D01*
X102850924Y-95244479D01*
X102850924Y-95244476D01*
X102789542Y-95055562D01*
X102699358Y-94878567D01*
X102672268Y-94841283D01*
X102026400Y-95487151D01*
X102026400Y-95486496D01*
X101998705Y-95383135D01*
X101945201Y-95290464D01*
X101869536Y-95214799D01*
X101776865Y-95161295D01*
X101673504Y-95133600D01*
X101672847Y-95133600D01*
X102318716Y-94487731D01*
X102318715Y-94487730D01*
X102281432Y-94460641D01*
X102124668Y-94380765D01*
X102073872Y-94332790D01*
X102057077Y-94264969D01*
X102079615Y-94198834D01*
X102124667Y-94159796D01*
X102281694Y-94079787D01*
X102442464Y-93962981D01*
X102582981Y-93822464D01*
X102699787Y-93661694D01*
X102790005Y-93484632D01*
X102851413Y-93295636D01*
X102882500Y-93099361D01*
X102882500Y-92900639D01*
X102851413Y-92704364D01*
X102790005Y-92515368D01*
X102790005Y-92515367D01*
X102730967Y-92399500D01*
X102699787Y-92338306D01*
X102582981Y-92177536D01*
X102442464Y-92037019D01*
X102281694Y-91920213D01*
X102125218Y-91840484D01*
X102074423Y-91792510D01*
X102057628Y-91724689D01*
X102080165Y-91658554D01*
X102125218Y-91619515D01*
X102281694Y-91539787D01*
X102442464Y-91422981D01*
X102582981Y-91282464D01*
X102699787Y-91121694D01*
X102790005Y-90944632D01*
X102851413Y-90755636D01*
X102882500Y-90559361D01*
X102882500Y-90360639D01*
X102851413Y-90164364D01*
X102790005Y-89975368D01*
X102790005Y-89975367D01*
X102709047Y-89816480D01*
X102699787Y-89798306D01*
X102582981Y-89637536D01*
X102442464Y-89497019D01*
X102281694Y-89380213D01*
X102125218Y-89300484D01*
X102074423Y-89252510D01*
X102057628Y-89184689D01*
X102080165Y-89118554D01*
X102125218Y-89079515D01*
X102281694Y-88999787D01*
X102442464Y-88882981D01*
X102582981Y-88742464D01*
X102699787Y-88581694D01*
X102790005Y-88404632D01*
X102851413Y-88215636D01*
X102882500Y-88019361D01*
X102882500Y-87820639D01*
X102851413Y-87624364D01*
X102790005Y-87435368D01*
X102790005Y-87435367D01*
X102702564Y-87263757D01*
X102699787Y-87258306D01*
X102582981Y-87097536D01*
X102442464Y-86957019D01*
X102281694Y-86840213D01*
X102125218Y-86760484D01*
X102074423Y-86712510D01*
X102057628Y-86644689D01*
X102080165Y-86578554D01*
X102125218Y-86539515D01*
X102281694Y-86459787D01*
X102442464Y-86342981D01*
X102582981Y-86202464D01*
X102699787Y-86041694D01*
X102790005Y-85864632D01*
X102851413Y-85675636D01*
X102882500Y-85479361D01*
X102882500Y-85280639D01*
X102851413Y-85084364D01*
X102790005Y-84895368D01*
X102790005Y-84895367D01*
X102699786Y-84718305D01*
X102582981Y-84557536D01*
X102442464Y-84417019D01*
X102281694Y-84300213D01*
X102124667Y-84220203D01*
X102073872Y-84172229D01*
X102057077Y-84104408D01*
X102079614Y-84038273D01*
X102124669Y-83999234D01*
X102281422Y-83919364D01*
X102318715Y-83892268D01*
X101672846Y-83246400D01*
X101673504Y-83246400D01*
X101776865Y-83218705D01*
X101869536Y-83165201D01*
X101945201Y-83089536D01*
X101998705Y-82996865D01*
X102026400Y-82893504D01*
X102026400Y-82892846D01*
X102672268Y-83538715D01*
X102699362Y-83501425D01*
X102789542Y-83324437D01*
X102850924Y-83135523D01*
X102850924Y-83135520D01*
X102882000Y-82939321D01*
X102882000Y-82922729D01*
X102901685Y-82855690D01*
X102954489Y-82809935D01*
X103023647Y-82799991D01*
X103087203Y-82829016D01*
G37*
%TD.AperFunction*%
%TA.AperFunction,Conductor*%
G36*
X89936942Y-84810185D02*
G01*
X89957584Y-84826819D01*
X89985922Y-84855157D01*
X90019407Y-84916480D01*
X90016173Y-84981155D01*
X90011522Y-84995468D01*
X89979500Y-85197648D01*
X89979500Y-85402351D01*
X90011522Y-85604534D01*
X90074781Y-85799223D01*
X90135001Y-85917409D01*
X90167585Y-85981359D01*
X90167715Y-85981613D01*
X90288028Y-86147213D01*
X90432782Y-86291967D01*
X90432787Y-86291971D01*
X90581039Y-86399682D01*
X90623705Y-86455011D01*
X90629684Y-86524625D01*
X90597079Y-86586420D01*
X90581039Y-86600318D01*
X90432787Y-86708028D01*
X90432782Y-86708032D01*
X90288028Y-86852786D01*
X90167715Y-87018386D01*
X90074781Y-87200776D01*
X90011522Y-87395465D01*
X89979500Y-87597648D01*
X89979500Y-87802351D01*
X90011522Y-88004534D01*
X90074781Y-88199223D01*
X90135916Y-88319205D01*
X90148812Y-88387874D01*
X90122536Y-88452615D01*
X90065429Y-88492872D01*
X90025431Y-88499500D01*
X82374569Y-88499500D01*
X82307530Y-88479815D01*
X82261775Y-88427011D01*
X82251831Y-88357853D01*
X82264084Y-88319205D01*
X82325218Y-88199223D01*
X82325218Y-88199222D01*
X82325220Y-88199219D01*
X82388477Y-88004534D01*
X82420500Y-87802352D01*
X82420500Y-87597648D01*
X82388477Y-87395466D01*
X82377508Y-87361708D01*
X82335954Y-87233818D01*
X82325220Y-87200781D01*
X82325218Y-87200778D01*
X82325218Y-87200776D01*
X82291503Y-87134607D01*
X82232287Y-87018390D01*
X82224556Y-87007749D01*
X82111971Y-86852786D01*
X81967219Y-86708034D01*
X81877018Y-86642500D01*
X81818534Y-86600009D01*
X81775869Y-86544680D01*
X81769890Y-86475066D01*
X81802495Y-86413271D01*
X81818534Y-86399374D01*
X81845921Y-86379475D01*
X81845921Y-86379474D01*
X81166447Y-85700000D01*
X81172661Y-85700000D01*
X81274394Y-85672741D01*
X81365606Y-85620080D01*
X81440080Y-85545606D01*
X81492741Y-85454394D01*
X81520000Y-85352661D01*
X81520000Y-85346447D01*
X82199474Y-86025921D01*
X82231859Y-85981349D01*
X82324755Y-85799031D01*
X82387990Y-85604417D01*
X82420000Y-85402317D01*
X82420000Y-85197682D01*
X82387990Y-84995582D01*
X82374095Y-84952819D01*
X82372100Y-84882978D01*
X82408180Y-84823145D01*
X82470880Y-84792316D01*
X82492026Y-84790500D01*
X89869903Y-84790500D01*
X89936942Y-84810185D01*
G37*
%TD.AperFunction*%
%TA.AperFunction,Conductor*%
G36*
X79815013Y-84810185D02*
G01*
X79860768Y-84862989D01*
X79870712Y-84932147D01*
X79865905Y-84952819D01*
X79852009Y-84995582D01*
X79820000Y-85197682D01*
X79820000Y-85402317D01*
X79852009Y-85604417D01*
X79915244Y-85799031D01*
X80008141Y-85981350D01*
X80008147Y-85981359D01*
X80040523Y-86025921D01*
X80040524Y-86025922D01*
X80720000Y-85346446D01*
X80720000Y-85352661D01*
X80747259Y-85454394D01*
X80799920Y-85545606D01*
X80874394Y-85620080D01*
X80965606Y-85672741D01*
X81067339Y-85700000D01*
X81073553Y-85700000D01*
X80394076Y-86379474D01*
X80394077Y-86379475D01*
X80421464Y-86399373D01*
X80464130Y-86454703D01*
X80470109Y-86524316D01*
X80437503Y-86586111D01*
X80421464Y-86600009D01*
X80272787Y-86708028D01*
X80272782Y-86708032D01*
X80128028Y-86852786D01*
X80007715Y-87018385D01*
X80000883Y-87031795D01*
X79952909Y-87082591D01*
X79890398Y-87099500D01*
X74966862Y-87099500D01*
X74899823Y-87079815D01*
X74856377Y-87031795D01*
X74838715Y-86997133D01*
X74775051Y-86872184D01*
X74713544Y-86787526D01*
X74650109Y-86700213D01*
X74499786Y-86549890D01*
X74327820Y-86424951D01*
X74327115Y-86424591D01*
X74319054Y-86420485D01*
X74268259Y-86372512D01*
X74251463Y-86304692D01*
X74273999Y-86238556D01*
X74319054Y-86199515D01*
X74327816Y-86195051D01*
X74393660Y-86147213D01*
X74499786Y-86070109D01*
X74499788Y-86070106D01*
X74499792Y-86070104D01*
X74650104Y-85919792D01*
X74650106Y-85919788D01*
X74650109Y-85919786D01*
X74775048Y-85747820D01*
X74775047Y-85747820D01*
X74775051Y-85747816D01*
X74871557Y-85558412D01*
X74937246Y-85356243D01*
X74970500Y-85146287D01*
X74970500Y-84933713D01*
X74970500Y-84933712D01*
X74970118Y-84928862D01*
X74971191Y-84928777D01*
X74979482Y-84864608D01*
X75024476Y-84811155D01*
X75091227Y-84790513D01*
X75093002Y-84790500D01*
X79747974Y-84790500D01*
X79815013Y-84810185D01*
G37*
%TD.AperFunction*%
%TA.AperFunction,Conductor*%
G36*
X103087203Y-60289016D02*
G01*
X103093681Y-60295048D01*
X103213181Y-60414548D01*
X103246666Y-60475871D01*
X103249500Y-60502229D01*
X103249500Y-75017770D01*
X103229815Y-75084809D01*
X103213181Y-75105451D01*
X101851893Y-76466738D01*
X101790570Y-76500223D01*
X101744816Y-76501531D01*
X101719363Y-76497500D01*
X101719361Y-76497500D01*
X101520639Y-76497500D01*
X101455214Y-76507862D01*
X101324362Y-76528587D01*
X101135370Y-76589993D01*
X101135367Y-76589994D01*
X100958305Y-76680213D01*
X100797533Y-76797021D01*
X100657021Y-76937533D01*
X100540213Y-77098305D01*
X100449994Y-77275367D01*
X100449993Y-77275370D01*
X100388587Y-77464362D01*
X100357500Y-77660639D01*
X100357500Y-77859360D01*
X100388587Y-78055637D01*
X100449993Y-78244629D01*
X100449994Y-78244632D01*
X100522548Y-78387025D01*
X100540213Y-78421694D01*
X100657019Y-78582464D01*
X100797536Y-78722981D01*
X100818384Y-78738128D01*
X100861050Y-78793455D01*
X100869500Y-78838446D01*
X100869500Y-79221553D01*
X100849815Y-79288592D01*
X100818387Y-79321869D01*
X100808126Y-79329324D01*
X100797534Y-79337020D01*
X100657021Y-79477533D01*
X100540213Y-79638305D01*
X100449994Y-79815367D01*
X100449993Y-79815370D01*
X100388587Y-80004362D01*
X100368891Y-80128717D01*
X100357500Y-80200639D01*
X100357500Y-80399361D01*
X100370021Y-80478414D01*
X100388587Y-80595637D01*
X100449993Y-80784629D01*
X100449994Y-80784632D01*
X100498169Y-80879179D01*
X100540213Y-80961694D01*
X100657019Y-81122464D01*
X100797536Y-81262981D01*
X100958306Y-81379787D01*
X101115332Y-81459796D01*
X101166127Y-81507769D01*
X101182922Y-81575590D01*
X101160385Y-81641725D01*
X101115332Y-81680764D01*
X100958566Y-81760641D01*
X100921283Y-81787729D01*
X100921282Y-81787730D01*
X101567153Y-82433600D01*
X101566496Y-82433600D01*
X101463135Y-82461295D01*
X101370464Y-82514799D01*
X101294799Y-82590464D01*
X101241295Y-82683135D01*
X101213600Y-82786496D01*
X101213600Y-82787153D01*
X100567730Y-82141282D01*
X100567729Y-82141283D01*
X100540643Y-82178564D01*
X100450457Y-82355562D01*
X100389075Y-82544476D01*
X100389075Y-82544479D01*
X100358000Y-82740678D01*
X100358000Y-82939321D01*
X100360298Y-82953830D01*
X100351343Y-83023123D01*
X100306347Y-83076575D01*
X100239596Y-83097215D01*
X100172282Y-83078490D01*
X100150144Y-83060909D01*
X98511607Y-81422372D01*
X98478122Y-81361049D01*
X98483106Y-81291357D01*
X98524978Y-81235424D01*
X98590442Y-81211007D01*
X98646739Y-81220129D01*
X98766503Y-81269737D01*
X98881000Y-81292512D01*
X98921153Y-81300499D01*
X98921156Y-81300500D01*
X98921158Y-81300500D01*
X99078844Y-81300500D01*
X99078845Y-81300499D01*
X99233497Y-81269737D01*
X99379179Y-81209394D01*
X99510289Y-81121789D01*
X99621789Y-81010289D01*
X99709394Y-80879179D01*
X99769737Y-80733497D01*
X99800500Y-80578842D01*
X99800500Y-80421158D01*
X99800500Y-80421155D01*
X99800499Y-80421153D01*
X99783796Y-80337183D01*
X99769737Y-80266503D01*
X99746080Y-80209390D01*
X99709397Y-80120827D01*
X99709390Y-80120814D01*
X99621398Y-79989125D01*
X99600520Y-79922447D01*
X99600500Y-79920234D01*
X99600500Y-70840097D01*
X99620185Y-70773058D01*
X99636819Y-70752416D01*
X99872996Y-70516239D01*
X100149544Y-70239690D01*
X100210865Y-70206207D01*
X100280556Y-70211191D01*
X100336490Y-70253062D01*
X100360907Y-70318527D01*
X100359697Y-70346767D01*
X100357500Y-70360641D01*
X100357500Y-70559360D01*
X100388587Y-70755637D01*
X100449993Y-70944629D01*
X100449994Y-70944632D01*
X100531560Y-71104712D01*
X100540213Y-71121694D01*
X100657019Y-71282464D01*
X100797536Y-71422981D01*
X100958306Y-71539787D01*
X101115332Y-71619796D01*
X101166127Y-71667769D01*
X101182922Y-71735590D01*
X101160385Y-71801725D01*
X101115332Y-71840764D01*
X100958566Y-71920641D01*
X100921283Y-71947729D01*
X100921282Y-71947730D01*
X101567154Y-72593600D01*
X101566496Y-72593600D01*
X101463135Y-72621295D01*
X101370464Y-72674799D01*
X101294799Y-72750464D01*
X101241295Y-72843135D01*
X101213600Y-72946496D01*
X101213600Y-72947152D01*
X100567730Y-72301282D01*
X100567729Y-72301283D01*
X100540643Y-72338564D01*
X100450457Y-72515562D01*
X100389075Y-72704476D01*
X100389075Y-72704479D01*
X100358000Y-72900678D01*
X100358000Y-73099321D01*
X100389075Y-73295520D01*
X100389075Y-73295523D01*
X100450457Y-73484437D01*
X100540641Y-73661432D01*
X100567730Y-73698715D01*
X100567731Y-73698716D01*
X101213600Y-73052847D01*
X101213600Y-73053504D01*
X101241295Y-73156865D01*
X101294799Y-73249536D01*
X101370464Y-73325201D01*
X101463135Y-73378705D01*
X101566496Y-73406400D01*
X101567153Y-73406400D01*
X100921283Y-74052268D01*
X100921283Y-74052269D01*
X100958567Y-74079358D01*
X101135562Y-74169542D01*
X101324477Y-74230924D01*
X101520679Y-74262000D01*
X101719321Y-74262000D01*
X101915520Y-74230924D01*
X101915523Y-74230924D01*
X102104437Y-74169542D01*
X102281425Y-74079362D01*
X102318716Y-74052268D01*
X101672848Y-73406400D01*
X101673504Y-73406400D01*
X101776865Y-73378705D01*
X101869536Y-73325201D01*
X101945201Y-73249536D01*
X101998705Y-73156865D01*
X102026400Y-73053504D01*
X102026400Y-73052847D01*
X102672268Y-73698715D01*
X102699362Y-73661425D01*
X102789542Y-73484437D01*
X102850924Y-73295523D01*
X102850924Y-73295520D01*
X102882000Y-73099321D01*
X102882000Y-72900678D01*
X102850924Y-72704479D01*
X102850924Y-72704476D01*
X102789542Y-72515562D01*
X102699358Y-72338567D01*
X102672268Y-72301283D01*
X102026400Y-72947151D01*
X102026400Y-72946496D01*
X101998705Y-72843135D01*
X101945201Y-72750464D01*
X101869536Y-72674799D01*
X101776865Y-72621295D01*
X101673504Y-72593600D01*
X101672847Y-72593600D01*
X102318716Y-71947731D01*
X102318715Y-71947730D01*
X102281432Y-71920641D01*
X102124668Y-71840765D01*
X102073872Y-71792790D01*
X102057077Y-71724969D01*
X102079615Y-71658834D01*
X102124667Y-71619796D01*
X102281694Y-71539787D01*
X102442464Y-71422981D01*
X102582981Y-71282464D01*
X102699787Y-71121694D01*
X102790005Y-70944632D01*
X102851413Y-70755636D01*
X102882500Y-70559361D01*
X102882500Y-70360639D01*
X102851413Y-70164364D01*
X102790005Y-69975368D01*
X102790005Y-69975367D01*
X102720937Y-69839815D01*
X102699787Y-69798306D01*
X102582981Y-69637536D01*
X102442464Y-69497019D01*
X102281694Y-69380213D01*
X102125218Y-69300484D01*
X102074423Y-69252510D01*
X102057628Y-69184689D01*
X102080165Y-69118554D01*
X102125218Y-69079515D01*
X102281694Y-68999787D01*
X102442464Y-68882981D01*
X102582981Y-68742464D01*
X102699787Y-68581694D01*
X102790005Y-68404632D01*
X102851413Y-68215636D01*
X102882500Y-68019361D01*
X102882500Y-67820639D01*
X102851413Y-67624364D01*
X102804447Y-67479815D01*
X102790006Y-67435370D01*
X102790005Y-67435367D01*
X102730631Y-67318841D01*
X102699787Y-67258306D01*
X102582981Y-67097536D01*
X102442464Y-66957019D01*
X102281694Y-66840213D01*
X102125218Y-66760484D01*
X102074423Y-66712510D01*
X102057628Y-66644689D01*
X102080165Y-66578554D01*
X102125218Y-66539515D01*
X102281694Y-66459787D01*
X102442464Y-66342981D01*
X102582981Y-66202464D01*
X102699787Y-66041694D01*
X102790005Y-65864632D01*
X102851413Y-65675636D01*
X102882500Y-65479361D01*
X102882500Y-65280639D01*
X102851413Y-65084364D01*
X102820709Y-64989866D01*
X102790006Y-64895370D01*
X102790005Y-64895367D01*
X102720937Y-64759815D01*
X102699787Y-64718306D01*
X102582981Y-64557536D01*
X102442464Y-64417019D01*
X102281694Y-64300213D01*
X102125218Y-64220484D01*
X102074423Y-64172510D01*
X102057628Y-64104689D01*
X102080165Y-64038554D01*
X102125218Y-63999515D01*
X102281694Y-63919787D01*
X102442464Y-63802981D01*
X102582981Y-63662464D01*
X102699787Y-63501694D01*
X102790005Y-63324632D01*
X102851413Y-63135636D01*
X102882500Y-62939361D01*
X102882500Y-62740639D01*
X102851413Y-62544364D01*
X102790005Y-62355368D01*
X102790005Y-62355367D01*
X102720937Y-62219815D01*
X102699787Y-62178306D01*
X102582981Y-62017536D01*
X102442464Y-61877019D01*
X102281694Y-61760213D01*
X102124667Y-61680203D01*
X102073872Y-61632229D01*
X102057077Y-61564408D01*
X102079614Y-61498273D01*
X102124669Y-61459234D01*
X102281422Y-61379364D01*
X102318716Y-61352268D01*
X101672848Y-60706400D01*
X101673504Y-60706400D01*
X101776865Y-60678705D01*
X101869536Y-60625201D01*
X101945201Y-60549536D01*
X101998705Y-60456865D01*
X102026400Y-60353504D01*
X102026400Y-60352846D01*
X102672268Y-60998715D01*
X102699362Y-60961425D01*
X102789542Y-60784437D01*
X102850924Y-60595523D01*
X102850924Y-60595520D01*
X102882000Y-60399321D01*
X102882000Y-60382729D01*
X102901685Y-60315690D01*
X102954489Y-60269935D01*
X103023647Y-60259991D01*
X103087203Y-60289016D01*
G37*
%TD.AperFunction*%
%TA.AperFunction,Conductor*%
G36*
X79957437Y-70320185D02*
G01*
X80000883Y-70368205D01*
X80007715Y-70381614D01*
X80128028Y-70547213D01*
X80272786Y-70691971D01*
X80360417Y-70755637D01*
X80438390Y-70812287D01*
X80620781Y-70905220D01*
X80704221Y-70932331D01*
X80761897Y-70971768D01*
X80789095Y-71036127D01*
X80777180Y-71104973D01*
X80729936Y-71156449D01*
X80704223Y-71168192D01*
X80620972Y-71195242D01*
X80438644Y-71288143D01*
X80394077Y-71320523D01*
X80394077Y-71320524D01*
X81073554Y-72000000D01*
X81067339Y-72000000D01*
X80965606Y-72027259D01*
X80874394Y-72079920D01*
X80799920Y-72154394D01*
X80747259Y-72245606D01*
X80720000Y-72347339D01*
X80720000Y-72353553D01*
X80040524Y-71674077D01*
X80040523Y-71674077D01*
X80008143Y-71718644D01*
X79915244Y-71900968D01*
X79852009Y-72095582D01*
X79820000Y-72297682D01*
X79820000Y-72502317D01*
X79852009Y-72704417D01*
X79891899Y-72827181D01*
X79893894Y-72897022D01*
X79857814Y-72956855D01*
X79795114Y-72987684D01*
X79773968Y-72989500D01*
X74973002Y-72989500D01*
X74905963Y-72969815D01*
X74860208Y-72917011D01*
X74850743Y-72851187D01*
X74850118Y-72851138D01*
X74850336Y-72848359D01*
X74850264Y-72847853D01*
X74850499Y-72846293D01*
X74850500Y-72846287D01*
X74850500Y-72633713D01*
X74832898Y-72522580D01*
X74817246Y-72423757D01*
X74751557Y-72221588D01*
X74655051Y-72032184D01*
X74655049Y-72032181D01*
X74655048Y-72032179D01*
X74530109Y-71860213D01*
X74379786Y-71709890D01*
X74207820Y-71584951D01*
X74207115Y-71584591D01*
X74199054Y-71580485D01*
X74148259Y-71532512D01*
X74131463Y-71464692D01*
X74153999Y-71398556D01*
X74199054Y-71359515D01*
X74207816Y-71355051D01*
X74255340Y-71320523D01*
X74379786Y-71230109D01*
X74379788Y-71230106D01*
X74379792Y-71230104D01*
X74530104Y-71079792D01*
X74530106Y-71079788D01*
X74530109Y-71079786D01*
X74655048Y-70907820D01*
X74655047Y-70907820D01*
X74655051Y-70907816D01*
X74751557Y-70718412D01*
X74817246Y-70516243D01*
X74834849Y-70405101D01*
X74864778Y-70341967D01*
X74924090Y-70305036D01*
X74957322Y-70300500D01*
X79890398Y-70300500D01*
X79957437Y-70320185D01*
G37*
%TD.AperFunction*%
%TA.AperFunction,Conductor*%
G36*
X90222348Y-68720185D02*
G01*
X90268103Y-68772989D01*
X90278047Y-68842147D01*
X90255627Y-68897385D01*
X90167715Y-69018386D01*
X90074781Y-69200776D01*
X90011522Y-69395465D01*
X89979500Y-69597648D01*
X89979500Y-69802351D01*
X90011522Y-70004534D01*
X90074781Y-70199223D01*
X90167715Y-70381613D01*
X90288028Y-70547213D01*
X90432786Y-70691971D01*
X90520417Y-70755637D01*
X90598390Y-70812287D01*
X90714607Y-70871503D01*
X90780776Y-70905218D01*
X90780778Y-70905218D01*
X90780781Y-70905220D01*
X90863414Y-70932069D01*
X90921089Y-70971507D01*
X90948287Y-71035866D01*
X90936372Y-71104712D01*
X90889128Y-71156188D01*
X90863414Y-71167930D01*
X90857258Y-71169931D01*
X90780776Y-71194781D01*
X90598386Y-71287715D01*
X90432786Y-71408028D01*
X90288028Y-71552786D01*
X90167715Y-71718386D01*
X90074781Y-71900776D01*
X90011522Y-72095465D01*
X89979500Y-72297648D01*
X89979500Y-72502352D01*
X89998339Y-72621295D01*
X90011523Y-72704534D01*
X90016172Y-72718843D01*
X90018167Y-72788684D01*
X89985923Y-72844840D01*
X89877582Y-72953182D01*
X89816262Y-72986666D01*
X89789903Y-72989500D01*
X82466032Y-72989500D01*
X82398993Y-72969815D01*
X82353238Y-72917011D01*
X82343294Y-72847853D01*
X82348101Y-72827181D01*
X82387990Y-72704417D01*
X82420000Y-72502317D01*
X82420000Y-72297682D01*
X82387990Y-72095582D01*
X82324755Y-71900968D01*
X82231859Y-71718650D01*
X82199474Y-71674077D01*
X82199474Y-71674076D01*
X81520000Y-72353551D01*
X81520000Y-72347339D01*
X81492741Y-72245606D01*
X81440080Y-72154394D01*
X81365606Y-72079920D01*
X81274394Y-72027259D01*
X81172661Y-72000000D01*
X81166446Y-72000000D01*
X81845922Y-71320524D01*
X81845921Y-71320523D01*
X81801359Y-71288147D01*
X81801350Y-71288141D01*
X81619030Y-71195244D01*
X81535777Y-71168193D01*
X81478102Y-71128754D01*
X81450904Y-71064396D01*
X81462819Y-70995549D01*
X81510064Y-70944074D01*
X81535773Y-70932333D01*
X81619219Y-70905220D01*
X81801610Y-70812287D01*
X81894590Y-70744732D01*
X81967213Y-70691971D01*
X81967215Y-70691968D01*
X81967219Y-70691966D01*
X82111966Y-70547219D01*
X82111968Y-70547215D01*
X82111971Y-70547213D01*
X82215219Y-70405102D01*
X82232287Y-70381610D01*
X82325220Y-70199219D01*
X82388477Y-70004534D01*
X82420500Y-69802352D01*
X82420500Y-69597648D01*
X82388477Y-69395466D01*
X82325220Y-69200781D01*
X82325218Y-69200778D01*
X82325218Y-69200776D01*
X82289808Y-69131282D01*
X82232287Y-69018390D01*
X82171928Y-68935312D01*
X82144374Y-68897386D01*
X82120894Y-68831579D01*
X82136720Y-68763526D01*
X82186826Y-68714831D01*
X82244690Y-68700501D01*
X82299057Y-68700501D01*
X82299060Y-68700500D01*
X82306667Y-68700500D01*
X90155309Y-68700500D01*
X90222348Y-68720185D01*
G37*
%TD.AperFunction*%
%TA.AperFunction,Conductor*%
G36*
X89946942Y-61820185D02*
G01*
X89967584Y-61836819D01*
X89985922Y-61855157D01*
X90019407Y-61916480D01*
X90016173Y-61981155D01*
X90011522Y-61995468D01*
X89979500Y-62197648D01*
X89979500Y-62402351D01*
X90011522Y-62604534D01*
X90074781Y-62799223D01*
X90124214Y-62896239D01*
X90167585Y-62981359D01*
X90167715Y-62981613D01*
X90288028Y-63147213D01*
X90432786Y-63291971D01*
X90598385Y-63412284D01*
X90598387Y-63412285D01*
X90598390Y-63412287D01*
X90641827Y-63434419D01*
X90692623Y-63482393D01*
X90709418Y-63550214D01*
X90686881Y-63616349D01*
X90641829Y-63655388D01*
X90578386Y-63687714D01*
X90412786Y-63808028D01*
X90268028Y-63952786D01*
X90147715Y-64118386D01*
X90054781Y-64300776D01*
X89991522Y-64495465D01*
X89959500Y-64697648D01*
X89959500Y-64902351D01*
X89991523Y-65104535D01*
X89991524Y-65104542D01*
X90002130Y-65137183D01*
X90004125Y-65207024D01*
X89968044Y-65266857D01*
X89905343Y-65297684D01*
X89884199Y-65299500D01*
X82475801Y-65299500D01*
X82408762Y-65279815D01*
X82363007Y-65227011D01*
X82353063Y-65157853D01*
X82357870Y-65137183D01*
X82368475Y-65104542D01*
X82368475Y-65104538D01*
X82368477Y-65104534D01*
X82400500Y-64902352D01*
X82400500Y-64697648D01*
X82368477Y-64495466D01*
X82305220Y-64300781D01*
X82305218Y-64300778D01*
X82305218Y-64300776D01*
X82258962Y-64209995D01*
X82212287Y-64118390D01*
X82191581Y-64089890D01*
X82091971Y-63952786D01*
X81947213Y-63808028D01*
X81781613Y-63687715D01*
X81781612Y-63687714D01*
X81781610Y-63687713D01*
X81737621Y-63665299D01*
X81686826Y-63617325D01*
X81670031Y-63549504D01*
X81692569Y-63483369D01*
X81737623Y-63444330D01*
X81801346Y-63411861D01*
X81801347Y-63411861D01*
X81845921Y-63379474D01*
X81166447Y-62700000D01*
X81172661Y-62700000D01*
X81274394Y-62672741D01*
X81365606Y-62620080D01*
X81440080Y-62545606D01*
X81492741Y-62454394D01*
X81520000Y-62352661D01*
X81520000Y-62346447D01*
X82199474Y-63025921D01*
X82231859Y-62981349D01*
X82324755Y-62799031D01*
X82387990Y-62604417D01*
X82420000Y-62402317D01*
X82420000Y-62197682D01*
X82387989Y-61995581D01*
X82387988Y-61995574D01*
X82377345Y-61962817D01*
X82375350Y-61892976D01*
X82411431Y-61833143D01*
X82474132Y-61802316D01*
X82495276Y-61800500D01*
X89879903Y-61800500D01*
X89946942Y-61820185D01*
G37*
%TD.AperFunction*%
%TA.AperFunction,Conductor*%
G36*
X79811763Y-61820185D02*
G01*
X79857518Y-61872989D01*
X79867462Y-61942147D01*
X79862655Y-61962817D01*
X79852011Y-61995574D01*
X79852010Y-61995581D01*
X79820000Y-62197682D01*
X79820000Y-62402317D01*
X79852009Y-62604417D01*
X79915244Y-62799031D01*
X80008141Y-62981350D01*
X80008147Y-62981359D01*
X80040523Y-63025921D01*
X80040524Y-63025922D01*
X80720000Y-62346446D01*
X80720000Y-62352661D01*
X80747259Y-62454394D01*
X80799920Y-62545606D01*
X80874394Y-62620080D01*
X80965606Y-62672741D01*
X81067339Y-62700000D01*
X81073553Y-62700000D01*
X80394076Y-63379474D01*
X80438652Y-63411861D01*
X80482376Y-63434139D01*
X80533172Y-63482113D01*
X80549968Y-63549934D01*
X80527431Y-63616069D01*
X80482378Y-63655108D01*
X80418388Y-63687713D01*
X80252786Y-63808028D01*
X80108028Y-63952786D01*
X79987715Y-64118385D01*
X79980883Y-64131795D01*
X79932909Y-64182591D01*
X79870398Y-64199500D01*
X74540758Y-64199500D01*
X74473719Y-64179815D01*
X74453077Y-64163181D01*
X74379786Y-64089890D01*
X74207820Y-63964951D01*
X74207115Y-63964591D01*
X74199054Y-63960485D01*
X74148259Y-63912512D01*
X74131463Y-63844692D01*
X74153999Y-63778556D01*
X74199054Y-63739515D01*
X74207816Y-63735051D01*
X74272969Y-63687715D01*
X74379786Y-63610109D01*
X74379788Y-63610106D01*
X74379792Y-63610104D01*
X74530104Y-63459792D01*
X74530106Y-63459788D01*
X74530109Y-63459786D01*
X74655048Y-63287820D01*
X74655047Y-63287820D01*
X74655051Y-63287816D01*
X74751557Y-63098412D01*
X74817246Y-62896243D01*
X74850500Y-62686287D01*
X74850500Y-62473713D01*
X74817246Y-62263757D01*
X74803506Y-62221473D01*
X74801512Y-62151635D01*
X74833753Y-62095480D01*
X75092418Y-61836817D01*
X75153741Y-61803334D01*
X75180098Y-61800500D01*
X79744724Y-61800500D01*
X79811763Y-61820185D01*
G37*
%TD.AperFunction*%
%TD*%
D18*
X70000000Y-51000000D02*
X120000000Y-51000000D01*
X120000000Y-131000000D01*
X70000000Y-131000000D01*
X70000000Y-51000000D01*
X118500000Y-54000000D02*
G75*
G02*
X115500000Y-54000000I-1500000J0D01*
G01*
X115500000Y-54000000D02*
G75*
G02*
X118500000Y-54000000I1500000J0D01*
G01*
X118500000Y-128000000D02*
G75*
G02*
X115500000Y-128000000I-1500000J0D01*
G01*
X115500000Y-128000000D02*
G75*
G02*
X118500000Y-128000000I1500000J0D01*
G01*
M02*
