%TF.GenerationSoftware,KiCad,Pcbnew,10.0.0*%
%TF.CreationDate,2026-06-26T19:18:11+09:00*%
%TF.ProjectId,park_kicad,7061726b-5f6b-4696-9361-642e6b696361,rev?*%
%TF.SameCoordinates,Original*%
%TF.FileFunction,Legend,Bot*%
%TF.FilePolarity,Positive*%
%FSLAX46Y46*%
G04 Gerber Fmt 4.6, Leading zero omitted, Abs format (unit mm)*
G04 Created by KiCad (PCBNEW 10.0.0) date 2026-06-26 19:18:11*
%MOMM*%
%LPD*%
G01*
G04 APERTURE LIST*
%ADD10C,0.150000*%
%ADD11C,0.120000*%
%TA.AperFunction,Profile*%
%ADD12C,0.050000*%
%TD*%
G04 APERTURE END LIST*
D10*
X86842857Y-105984819D02*
X87176190Y-105508628D01*
X87414285Y-105984819D02*
X87414285Y-104984819D01*
X87414285Y-104984819D02*
X87033333Y-104984819D01*
X87033333Y-104984819D02*
X86938095Y-105032438D01*
X86938095Y-105032438D02*
X86890476Y-105080057D01*
X86890476Y-105080057D02*
X86842857Y-105175295D01*
X86842857Y-105175295D02*
X86842857Y-105318152D01*
X86842857Y-105318152D02*
X86890476Y-105413390D01*
X86890476Y-105413390D02*
X86938095Y-105461009D01*
X86938095Y-105461009D02*
X87033333Y-105508628D01*
X87033333Y-105508628D02*
X87414285Y-105508628D01*
X86461904Y-105080057D02*
X86414285Y-105032438D01*
X86414285Y-105032438D02*
X86319047Y-104984819D01*
X86319047Y-104984819D02*
X86080952Y-104984819D01*
X86080952Y-104984819D02*
X85985714Y-105032438D01*
X85985714Y-105032438D02*
X85938095Y-105080057D01*
X85938095Y-105080057D02*
X85890476Y-105175295D01*
X85890476Y-105175295D02*
X85890476Y-105270533D01*
X85890476Y-105270533D02*
X85938095Y-105413390D01*
X85938095Y-105413390D02*
X86509523Y-105984819D01*
X86509523Y-105984819D02*
X85890476Y-105984819D01*
X85271428Y-104984819D02*
X85176190Y-104984819D01*
X85176190Y-104984819D02*
X85080952Y-105032438D01*
X85080952Y-105032438D02*
X85033333Y-105080057D01*
X85033333Y-105080057D02*
X84985714Y-105175295D01*
X84985714Y-105175295D02*
X84938095Y-105365771D01*
X84938095Y-105365771D02*
X84938095Y-105603866D01*
X84938095Y-105603866D02*
X84985714Y-105794342D01*
X84985714Y-105794342D02*
X85033333Y-105889580D01*
X85033333Y-105889580D02*
X85080952Y-105937200D01*
X85080952Y-105937200D02*
X85176190Y-105984819D01*
X85176190Y-105984819D02*
X85271428Y-105984819D01*
X85271428Y-105984819D02*
X85366666Y-105937200D01*
X85366666Y-105937200D02*
X85414285Y-105889580D01*
X85414285Y-105889580D02*
X85461904Y-105794342D01*
X85461904Y-105794342D02*
X85509523Y-105603866D01*
X85509523Y-105603866D02*
X85509523Y-105365771D01*
X85509523Y-105365771D02*
X85461904Y-105175295D01*
X85461904Y-105175295D02*
X85414285Y-105080057D01*
X85414285Y-105080057D02*
X85366666Y-105032438D01*
X85366666Y-105032438D02*
X85271428Y-104984819D01*
X86366666Y-55584819D02*
X86699999Y-55108628D01*
X86938094Y-55584819D02*
X86938094Y-54584819D01*
X86938094Y-54584819D02*
X86557142Y-54584819D01*
X86557142Y-54584819D02*
X86461904Y-54632438D01*
X86461904Y-54632438D02*
X86414285Y-54680057D01*
X86414285Y-54680057D02*
X86366666Y-54775295D01*
X86366666Y-54775295D02*
X86366666Y-54918152D01*
X86366666Y-54918152D02*
X86414285Y-55013390D01*
X86414285Y-55013390D02*
X86461904Y-55061009D01*
X86461904Y-55061009D02*
X86557142Y-55108628D01*
X86557142Y-55108628D02*
X86938094Y-55108628D01*
X85985713Y-54680057D02*
X85938094Y-54632438D01*
X85938094Y-54632438D02*
X85842856Y-54584819D01*
X85842856Y-54584819D02*
X85604761Y-54584819D01*
X85604761Y-54584819D02*
X85509523Y-54632438D01*
X85509523Y-54632438D02*
X85461904Y-54680057D01*
X85461904Y-54680057D02*
X85414285Y-54775295D01*
X85414285Y-54775295D02*
X85414285Y-54870533D01*
X85414285Y-54870533D02*
X85461904Y-55013390D01*
X85461904Y-55013390D02*
X86033332Y-55584819D01*
X86033332Y-55584819D02*
X85414285Y-55584819D01*
X86842857Y-111584819D02*
X87176190Y-111108628D01*
X87414285Y-111584819D02*
X87414285Y-110584819D01*
X87414285Y-110584819D02*
X87033333Y-110584819D01*
X87033333Y-110584819D02*
X86938095Y-110632438D01*
X86938095Y-110632438D02*
X86890476Y-110680057D01*
X86890476Y-110680057D02*
X86842857Y-110775295D01*
X86842857Y-110775295D02*
X86842857Y-110918152D01*
X86842857Y-110918152D02*
X86890476Y-111013390D01*
X86890476Y-111013390D02*
X86938095Y-111061009D01*
X86938095Y-111061009D02*
X87033333Y-111108628D01*
X87033333Y-111108628D02*
X87414285Y-111108628D01*
X86461904Y-110680057D02*
X86414285Y-110632438D01*
X86414285Y-110632438D02*
X86319047Y-110584819D01*
X86319047Y-110584819D02*
X86080952Y-110584819D01*
X86080952Y-110584819D02*
X85985714Y-110632438D01*
X85985714Y-110632438D02*
X85938095Y-110680057D01*
X85938095Y-110680057D02*
X85890476Y-110775295D01*
X85890476Y-110775295D02*
X85890476Y-110870533D01*
X85890476Y-110870533D02*
X85938095Y-111013390D01*
X85938095Y-111013390D02*
X86509523Y-111584819D01*
X86509523Y-111584819D02*
X85890476Y-111584819D01*
X85509523Y-110680057D02*
X85461904Y-110632438D01*
X85461904Y-110632438D02*
X85366666Y-110584819D01*
X85366666Y-110584819D02*
X85128571Y-110584819D01*
X85128571Y-110584819D02*
X85033333Y-110632438D01*
X85033333Y-110632438D02*
X84985714Y-110680057D01*
X84985714Y-110680057D02*
X84938095Y-110775295D01*
X84938095Y-110775295D02*
X84938095Y-110870533D01*
X84938095Y-110870533D02*
X84985714Y-111013390D01*
X84985714Y-111013390D02*
X85557142Y-111584819D01*
X85557142Y-111584819D02*
X84938095Y-111584819D01*
X86366666Y-65084819D02*
X86699999Y-64608628D01*
X86938094Y-65084819D02*
X86938094Y-64084819D01*
X86938094Y-64084819D02*
X86557142Y-64084819D01*
X86557142Y-64084819D02*
X86461904Y-64132438D01*
X86461904Y-64132438D02*
X86414285Y-64180057D01*
X86414285Y-64180057D02*
X86366666Y-64275295D01*
X86366666Y-64275295D02*
X86366666Y-64418152D01*
X86366666Y-64418152D02*
X86414285Y-64513390D01*
X86414285Y-64513390D02*
X86461904Y-64561009D01*
X86461904Y-64561009D02*
X86557142Y-64608628D01*
X86557142Y-64608628D02*
X86938094Y-64608628D01*
X85509523Y-64084819D02*
X85699999Y-64084819D01*
X85699999Y-64084819D02*
X85795237Y-64132438D01*
X85795237Y-64132438D02*
X85842856Y-64180057D01*
X85842856Y-64180057D02*
X85938094Y-64322914D01*
X85938094Y-64322914D02*
X85985713Y-64513390D01*
X85985713Y-64513390D02*
X85985713Y-64894342D01*
X85985713Y-64894342D02*
X85938094Y-64989580D01*
X85938094Y-64989580D02*
X85890475Y-65037200D01*
X85890475Y-65037200D02*
X85795237Y-65084819D01*
X85795237Y-65084819D02*
X85604761Y-65084819D01*
X85604761Y-65084819D02*
X85509523Y-65037200D01*
X85509523Y-65037200D02*
X85461904Y-64989580D01*
X85461904Y-64989580D02*
X85414285Y-64894342D01*
X85414285Y-64894342D02*
X85414285Y-64656247D01*
X85414285Y-64656247D02*
X85461904Y-64561009D01*
X85461904Y-64561009D02*
X85509523Y-64513390D01*
X85509523Y-64513390D02*
X85604761Y-64465771D01*
X85604761Y-64465771D02*
X85795237Y-64465771D01*
X85795237Y-64465771D02*
X85890475Y-64513390D01*
X85890475Y-64513390D02*
X85938094Y-64561009D01*
X85938094Y-64561009D02*
X85985713Y-64656247D01*
X86942857Y-100884819D02*
X87276190Y-100408628D01*
X87514285Y-100884819D02*
X87514285Y-99884819D01*
X87514285Y-99884819D02*
X87133333Y-99884819D01*
X87133333Y-99884819D02*
X87038095Y-99932438D01*
X87038095Y-99932438D02*
X86990476Y-99980057D01*
X86990476Y-99980057D02*
X86942857Y-100075295D01*
X86942857Y-100075295D02*
X86942857Y-100218152D01*
X86942857Y-100218152D02*
X86990476Y-100313390D01*
X86990476Y-100313390D02*
X87038095Y-100361009D01*
X87038095Y-100361009D02*
X87133333Y-100408628D01*
X87133333Y-100408628D02*
X87514285Y-100408628D01*
X85990476Y-100884819D02*
X86561904Y-100884819D01*
X86276190Y-100884819D02*
X86276190Y-99884819D01*
X86276190Y-99884819D02*
X86371428Y-100027676D01*
X86371428Y-100027676D02*
X86466666Y-100122914D01*
X86466666Y-100122914D02*
X86561904Y-100170533D01*
X85419047Y-100313390D02*
X85514285Y-100265771D01*
X85514285Y-100265771D02*
X85561904Y-100218152D01*
X85561904Y-100218152D02*
X85609523Y-100122914D01*
X85609523Y-100122914D02*
X85609523Y-100075295D01*
X85609523Y-100075295D02*
X85561904Y-99980057D01*
X85561904Y-99980057D02*
X85514285Y-99932438D01*
X85514285Y-99932438D02*
X85419047Y-99884819D01*
X85419047Y-99884819D02*
X85228571Y-99884819D01*
X85228571Y-99884819D02*
X85133333Y-99932438D01*
X85133333Y-99932438D02*
X85085714Y-99980057D01*
X85085714Y-99980057D02*
X85038095Y-100075295D01*
X85038095Y-100075295D02*
X85038095Y-100122914D01*
X85038095Y-100122914D02*
X85085714Y-100218152D01*
X85085714Y-100218152D02*
X85133333Y-100265771D01*
X85133333Y-100265771D02*
X85228571Y-100313390D01*
X85228571Y-100313390D02*
X85419047Y-100313390D01*
X85419047Y-100313390D02*
X85514285Y-100361009D01*
X85514285Y-100361009D02*
X85561904Y-100408628D01*
X85561904Y-100408628D02*
X85609523Y-100503866D01*
X85609523Y-100503866D02*
X85609523Y-100694342D01*
X85609523Y-100694342D02*
X85561904Y-100789580D01*
X85561904Y-100789580D02*
X85514285Y-100837200D01*
X85514285Y-100837200D02*
X85419047Y-100884819D01*
X85419047Y-100884819D02*
X85228571Y-100884819D01*
X85228571Y-100884819D02*
X85133333Y-100837200D01*
X85133333Y-100837200D02*
X85085714Y-100789580D01*
X85085714Y-100789580D02*
X85038095Y-100694342D01*
X85038095Y-100694342D02*
X85038095Y-100503866D01*
X85038095Y-100503866D02*
X85085714Y-100408628D01*
X85085714Y-100408628D02*
X85133333Y-100361009D01*
X85133333Y-100361009D02*
X85228571Y-100313390D01*
X86842857Y-83384819D02*
X87176190Y-82908628D01*
X87414285Y-83384819D02*
X87414285Y-82384819D01*
X87414285Y-82384819D02*
X87033333Y-82384819D01*
X87033333Y-82384819D02*
X86938095Y-82432438D01*
X86938095Y-82432438D02*
X86890476Y-82480057D01*
X86890476Y-82480057D02*
X86842857Y-82575295D01*
X86842857Y-82575295D02*
X86842857Y-82718152D01*
X86842857Y-82718152D02*
X86890476Y-82813390D01*
X86890476Y-82813390D02*
X86938095Y-82861009D01*
X86938095Y-82861009D02*
X87033333Y-82908628D01*
X87033333Y-82908628D02*
X87414285Y-82908628D01*
X85890476Y-83384819D02*
X86461904Y-83384819D01*
X86176190Y-83384819D02*
X86176190Y-82384819D01*
X86176190Y-82384819D02*
X86271428Y-82527676D01*
X86271428Y-82527676D02*
X86366666Y-82622914D01*
X86366666Y-82622914D02*
X86461904Y-82670533D01*
X85509523Y-82480057D02*
X85461904Y-82432438D01*
X85461904Y-82432438D02*
X85366666Y-82384819D01*
X85366666Y-82384819D02*
X85128571Y-82384819D01*
X85128571Y-82384819D02*
X85033333Y-82432438D01*
X85033333Y-82432438D02*
X84985714Y-82480057D01*
X84985714Y-82480057D02*
X84938095Y-82575295D01*
X84938095Y-82575295D02*
X84938095Y-82670533D01*
X84938095Y-82670533D02*
X84985714Y-82813390D01*
X84985714Y-82813390D02*
X85557142Y-83384819D01*
X85557142Y-83384819D02*
X84938095Y-83384819D01*
X86842857Y-93084819D02*
X87176190Y-92608628D01*
X87414285Y-93084819D02*
X87414285Y-92084819D01*
X87414285Y-92084819D02*
X87033333Y-92084819D01*
X87033333Y-92084819D02*
X86938095Y-92132438D01*
X86938095Y-92132438D02*
X86890476Y-92180057D01*
X86890476Y-92180057D02*
X86842857Y-92275295D01*
X86842857Y-92275295D02*
X86842857Y-92418152D01*
X86842857Y-92418152D02*
X86890476Y-92513390D01*
X86890476Y-92513390D02*
X86938095Y-92561009D01*
X86938095Y-92561009D02*
X87033333Y-92608628D01*
X87033333Y-92608628D02*
X87414285Y-92608628D01*
X85890476Y-93084819D02*
X86461904Y-93084819D01*
X86176190Y-93084819D02*
X86176190Y-92084819D01*
X86176190Y-92084819D02*
X86271428Y-92227676D01*
X86271428Y-92227676D02*
X86366666Y-92322914D01*
X86366666Y-92322914D02*
X86461904Y-92370533D01*
X85033333Y-92084819D02*
X85223809Y-92084819D01*
X85223809Y-92084819D02*
X85319047Y-92132438D01*
X85319047Y-92132438D02*
X85366666Y-92180057D01*
X85366666Y-92180057D02*
X85461904Y-92322914D01*
X85461904Y-92322914D02*
X85509523Y-92513390D01*
X85509523Y-92513390D02*
X85509523Y-92894342D01*
X85509523Y-92894342D02*
X85461904Y-92989580D01*
X85461904Y-92989580D02*
X85414285Y-93037200D01*
X85414285Y-93037200D02*
X85319047Y-93084819D01*
X85319047Y-93084819D02*
X85128571Y-93084819D01*
X85128571Y-93084819D02*
X85033333Y-93037200D01*
X85033333Y-93037200D02*
X84985714Y-92989580D01*
X84985714Y-92989580D02*
X84938095Y-92894342D01*
X84938095Y-92894342D02*
X84938095Y-92656247D01*
X84938095Y-92656247D02*
X84985714Y-92561009D01*
X84985714Y-92561009D02*
X85033333Y-92513390D01*
X85033333Y-92513390D02*
X85128571Y-92465771D01*
X85128571Y-92465771D02*
X85319047Y-92465771D01*
X85319047Y-92465771D02*
X85414285Y-92513390D01*
X85414285Y-92513390D02*
X85461904Y-92561009D01*
X85461904Y-92561009D02*
X85509523Y-92656247D01*
X86366666Y-60384819D02*
X86699999Y-59908628D01*
X86938094Y-60384819D02*
X86938094Y-59384819D01*
X86938094Y-59384819D02*
X86557142Y-59384819D01*
X86557142Y-59384819D02*
X86461904Y-59432438D01*
X86461904Y-59432438D02*
X86414285Y-59480057D01*
X86414285Y-59480057D02*
X86366666Y-59575295D01*
X86366666Y-59575295D02*
X86366666Y-59718152D01*
X86366666Y-59718152D02*
X86414285Y-59813390D01*
X86414285Y-59813390D02*
X86461904Y-59861009D01*
X86461904Y-59861009D02*
X86557142Y-59908628D01*
X86557142Y-59908628D02*
X86938094Y-59908628D01*
X85509523Y-59718152D02*
X85509523Y-60384819D01*
X85747618Y-59337200D02*
X85985713Y-60051485D01*
X85985713Y-60051485D02*
X85366666Y-60051485D01*
X86842857Y-88284819D02*
X87176190Y-87808628D01*
X87414285Y-88284819D02*
X87414285Y-87284819D01*
X87414285Y-87284819D02*
X87033333Y-87284819D01*
X87033333Y-87284819D02*
X86938095Y-87332438D01*
X86938095Y-87332438D02*
X86890476Y-87380057D01*
X86890476Y-87380057D02*
X86842857Y-87475295D01*
X86842857Y-87475295D02*
X86842857Y-87618152D01*
X86842857Y-87618152D02*
X86890476Y-87713390D01*
X86890476Y-87713390D02*
X86938095Y-87761009D01*
X86938095Y-87761009D02*
X87033333Y-87808628D01*
X87033333Y-87808628D02*
X87414285Y-87808628D01*
X85890476Y-88284819D02*
X86461904Y-88284819D01*
X86176190Y-88284819D02*
X86176190Y-87284819D01*
X86176190Y-87284819D02*
X86271428Y-87427676D01*
X86271428Y-87427676D02*
X86366666Y-87522914D01*
X86366666Y-87522914D02*
X86461904Y-87570533D01*
X85033333Y-87618152D02*
X85033333Y-88284819D01*
X85271428Y-87237200D02*
X85509523Y-87951485D01*
X85509523Y-87951485D02*
X84890476Y-87951485D01*
X86366666Y-70484819D02*
X86699999Y-70008628D01*
X86938094Y-70484819D02*
X86938094Y-69484819D01*
X86938094Y-69484819D02*
X86557142Y-69484819D01*
X86557142Y-69484819D02*
X86461904Y-69532438D01*
X86461904Y-69532438D02*
X86414285Y-69580057D01*
X86414285Y-69580057D02*
X86366666Y-69675295D01*
X86366666Y-69675295D02*
X86366666Y-69818152D01*
X86366666Y-69818152D02*
X86414285Y-69913390D01*
X86414285Y-69913390D02*
X86461904Y-69961009D01*
X86461904Y-69961009D02*
X86557142Y-70008628D01*
X86557142Y-70008628D02*
X86938094Y-70008628D01*
X85795237Y-69913390D02*
X85890475Y-69865771D01*
X85890475Y-69865771D02*
X85938094Y-69818152D01*
X85938094Y-69818152D02*
X85985713Y-69722914D01*
X85985713Y-69722914D02*
X85985713Y-69675295D01*
X85985713Y-69675295D02*
X85938094Y-69580057D01*
X85938094Y-69580057D02*
X85890475Y-69532438D01*
X85890475Y-69532438D02*
X85795237Y-69484819D01*
X85795237Y-69484819D02*
X85604761Y-69484819D01*
X85604761Y-69484819D02*
X85509523Y-69532438D01*
X85509523Y-69532438D02*
X85461904Y-69580057D01*
X85461904Y-69580057D02*
X85414285Y-69675295D01*
X85414285Y-69675295D02*
X85414285Y-69722914D01*
X85414285Y-69722914D02*
X85461904Y-69818152D01*
X85461904Y-69818152D02*
X85509523Y-69865771D01*
X85509523Y-69865771D02*
X85604761Y-69913390D01*
X85604761Y-69913390D02*
X85795237Y-69913390D01*
X85795237Y-69913390D02*
X85890475Y-69961009D01*
X85890475Y-69961009D02*
X85938094Y-70008628D01*
X85938094Y-70008628D02*
X85985713Y-70103866D01*
X85985713Y-70103866D02*
X85985713Y-70294342D01*
X85985713Y-70294342D02*
X85938094Y-70389580D01*
X85938094Y-70389580D02*
X85890475Y-70437200D01*
X85890475Y-70437200D02*
X85795237Y-70484819D01*
X85795237Y-70484819D02*
X85604761Y-70484819D01*
X85604761Y-70484819D02*
X85509523Y-70437200D01*
X85509523Y-70437200D02*
X85461904Y-70389580D01*
X85461904Y-70389580D02*
X85414285Y-70294342D01*
X85414285Y-70294342D02*
X85414285Y-70103866D01*
X85414285Y-70103866D02*
X85461904Y-70008628D01*
X85461904Y-70008628D02*
X85509523Y-69961009D01*
X85509523Y-69961009D02*
X85604761Y-69913390D01*
X86822857Y-78084819D02*
X87156190Y-77608628D01*
X87394285Y-78084819D02*
X87394285Y-77084819D01*
X87394285Y-77084819D02*
X87013333Y-77084819D01*
X87013333Y-77084819D02*
X86918095Y-77132438D01*
X86918095Y-77132438D02*
X86870476Y-77180057D01*
X86870476Y-77180057D02*
X86822857Y-77275295D01*
X86822857Y-77275295D02*
X86822857Y-77418152D01*
X86822857Y-77418152D02*
X86870476Y-77513390D01*
X86870476Y-77513390D02*
X86918095Y-77561009D01*
X86918095Y-77561009D02*
X87013333Y-77608628D01*
X87013333Y-77608628D02*
X87394285Y-77608628D01*
X85870476Y-78084819D02*
X86441904Y-78084819D01*
X86156190Y-78084819D02*
X86156190Y-77084819D01*
X86156190Y-77084819D02*
X86251428Y-77227676D01*
X86251428Y-77227676D02*
X86346666Y-77322914D01*
X86346666Y-77322914D02*
X86441904Y-77370533D01*
X85251428Y-77084819D02*
X85156190Y-77084819D01*
X85156190Y-77084819D02*
X85060952Y-77132438D01*
X85060952Y-77132438D02*
X85013333Y-77180057D01*
X85013333Y-77180057D02*
X84965714Y-77275295D01*
X84965714Y-77275295D02*
X84918095Y-77465771D01*
X84918095Y-77465771D02*
X84918095Y-77703866D01*
X84918095Y-77703866D02*
X84965714Y-77894342D01*
X84965714Y-77894342D02*
X85013333Y-77989580D01*
X85013333Y-77989580D02*
X85060952Y-78037200D01*
X85060952Y-78037200D02*
X85156190Y-78084819D01*
X85156190Y-78084819D02*
X85251428Y-78084819D01*
X85251428Y-78084819D02*
X85346666Y-78037200D01*
X85346666Y-78037200D02*
X85394285Y-77989580D01*
X85394285Y-77989580D02*
X85441904Y-77894342D01*
X85441904Y-77894342D02*
X85489523Y-77703866D01*
X85489523Y-77703866D02*
X85489523Y-77465771D01*
X85489523Y-77465771D02*
X85441904Y-77275295D01*
X85441904Y-77275295D02*
X85394285Y-77180057D01*
X85394285Y-77180057D02*
X85346666Y-77132438D01*
X85346666Y-77132438D02*
X85251428Y-77084819D01*
X86722857Y-116584819D02*
X87056190Y-116108628D01*
X87294285Y-116584819D02*
X87294285Y-115584819D01*
X87294285Y-115584819D02*
X86913333Y-115584819D01*
X86913333Y-115584819D02*
X86818095Y-115632438D01*
X86818095Y-115632438D02*
X86770476Y-115680057D01*
X86770476Y-115680057D02*
X86722857Y-115775295D01*
X86722857Y-115775295D02*
X86722857Y-115918152D01*
X86722857Y-115918152D02*
X86770476Y-116013390D01*
X86770476Y-116013390D02*
X86818095Y-116061009D01*
X86818095Y-116061009D02*
X86913333Y-116108628D01*
X86913333Y-116108628D02*
X87294285Y-116108628D01*
X86341904Y-115680057D02*
X86294285Y-115632438D01*
X86294285Y-115632438D02*
X86199047Y-115584819D01*
X86199047Y-115584819D02*
X85960952Y-115584819D01*
X85960952Y-115584819D02*
X85865714Y-115632438D01*
X85865714Y-115632438D02*
X85818095Y-115680057D01*
X85818095Y-115680057D02*
X85770476Y-115775295D01*
X85770476Y-115775295D02*
X85770476Y-115870533D01*
X85770476Y-115870533D02*
X85818095Y-116013390D01*
X85818095Y-116013390D02*
X86389523Y-116584819D01*
X86389523Y-116584819D02*
X85770476Y-116584819D01*
X84913333Y-115918152D02*
X84913333Y-116584819D01*
X85151428Y-115537200D02*
X85389523Y-116251485D01*
X85389523Y-116251485D02*
X84770476Y-116251485D01*
%TO.C,R20*%
D11*
X82160000Y-107900000D02*
X82930000Y-107900000D01*
X90240000Y-107900000D02*
X89470000Y-107900000D01*
X82930000Y-106530000D02*
X89470000Y-106530000D01*
X89470000Y-109270000D01*
X82930000Y-109270000D01*
X82930000Y-106530000D01*
%TO.C,R2*%
X82160000Y-57500000D02*
X82930000Y-57500000D01*
X90240000Y-57500000D02*
X89470000Y-57500000D01*
X82930000Y-56130000D02*
X89470000Y-56130000D01*
X89470000Y-58870000D01*
X82930000Y-58870000D01*
X82930000Y-56130000D01*
%TO.C,R22*%
X82160000Y-113500000D02*
X82930000Y-113500000D01*
X90240000Y-113500000D02*
X89470000Y-113500000D01*
X82930000Y-112130000D02*
X89470000Y-112130000D01*
X89470000Y-114870000D01*
X82930000Y-114870000D01*
X82930000Y-112130000D01*
%TO.C,R6*%
X82160000Y-67000000D02*
X82930000Y-67000000D01*
X90240000Y-67000000D02*
X89470000Y-67000000D01*
X82930000Y-65630000D02*
X89470000Y-65630000D01*
X89470000Y-68370000D01*
X82930000Y-68370000D01*
X82930000Y-65630000D01*
%TO.C,R18*%
X82260000Y-102800000D02*
X83030000Y-102800000D01*
X90340000Y-102800000D02*
X89570000Y-102800000D01*
X83030000Y-101430000D02*
X89570000Y-101430000D01*
X89570000Y-104170000D01*
X83030000Y-104170000D01*
X83030000Y-101430000D01*
%TO.C,R12*%
X82160000Y-85300000D02*
X82930000Y-85300000D01*
X90240000Y-85300000D02*
X89470000Y-85300000D01*
X82930000Y-83930000D02*
X89470000Y-83930000D01*
X89470000Y-86670000D01*
X82930000Y-86670000D01*
X82930000Y-83930000D01*
%TO.C,R16*%
X82160000Y-95000000D02*
X82930000Y-95000000D01*
X90240000Y-95000000D02*
X89470000Y-95000000D01*
X82930000Y-93630000D02*
X89470000Y-93630000D01*
X89470000Y-96370000D01*
X82930000Y-96370000D01*
X82930000Y-93630000D01*
%TO.C,R4*%
X82160000Y-62300000D02*
X82930000Y-62300000D01*
X90240000Y-62300000D02*
X89470000Y-62300000D01*
X82930000Y-60930000D02*
X89470000Y-60930000D01*
X89470000Y-63670000D01*
X82930000Y-63670000D01*
X82930000Y-60930000D01*
%TO.C,R14*%
X82160000Y-90200000D02*
X82930000Y-90200000D01*
X90240000Y-90200000D02*
X89470000Y-90200000D01*
X82930000Y-88830000D02*
X89470000Y-88830000D01*
X89470000Y-91570000D01*
X82930000Y-91570000D01*
X82930000Y-88830000D01*
%TO.C,R8*%
X82160000Y-72400000D02*
X82930000Y-72400000D01*
X90240000Y-72400000D02*
X89470000Y-72400000D01*
X82930000Y-71030000D02*
X89470000Y-71030000D01*
X89470000Y-73770000D01*
X82930000Y-73770000D01*
X82930000Y-71030000D01*
%TO.C,R10*%
X82140000Y-80000000D02*
X82910000Y-80000000D01*
X90220000Y-80000000D02*
X89450000Y-80000000D01*
X82910000Y-78630000D02*
X89450000Y-78630000D01*
X89450000Y-81370000D01*
X82910000Y-81370000D01*
X82910000Y-78630000D01*
%TO.C,R24*%
X82040000Y-118500000D02*
X82810000Y-118500000D01*
X90120000Y-118500000D02*
X89350000Y-118500000D01*
X82810000Y-117130000D02*
X89350000Y-117130000D01*
X89350000Y-119870000D01*
X82810000Y-119870000D01*
X82810000Y-117130000D01*
%TD*%
D12*
X70000000Y-51000000D02*
X120000000Y-51000000D01*
X120000000Y-131000000D01*
X70000000Y-131000000D01*
X70000000Y-51000000D01*
X118500000Y-54000000D02*
G75*
G02*
X115500000Y-54000000I-1500000J0D01*
G01*
X115500000Y-54000000D02*
G75*
G02*
X118500000Y-54000000I1500000J0D01*
G01*
X118500000Y-128000000D02*
G75*
G02*
X115500000Y-128000000I-1500000J0D01*
G01*
X115500000Y-128000000D02*
G75*
G02*
X118500000Y-128000000I1500000J0D01*
G01*
M02*
